<?xml version="1.0" encoding="utf-8"?>
<!-- Generator: Adobe Illustrator 27.5.0, SVG Export Plug-In . SVG Version: 6.00 Build 0)  -->
<svg version="1.1" id="Layer_1" xmlns="http://www.w3.org/2000/svg" xmlns:xlink="http://www.w3.org/1999/xlink" x="0px" y="0px"
	 viewBox="0 0 217.042 158.333" style="enable-background:new 0 0 217.042 158.333;" xml:space="preserve">
<g>
	<g>
		<g>
			<g>
				<path style="fill:#5E2C00;" d="M212.494,93.19c-0.042-0.086-0.136-0.07-0.212-0.028c0.029-0.019,0.053-0.029,0.068-0.034
					c-0.013,0.005-0.026,0.008-0.055,0.01c-0.06,0.011-0.128,0-0.188-0.002c-0.197-0.011-0.388-0.061-0.587-0.071
					c-0.501-0.028-0.972,0.058-1.41,0.31c-0.005,0.003-0.008,0.008-0.013,0.011c-0.377-0.758-0.744-1.529-1.126-2.281
					c0.133-0.16,0.22-0.349,0.167-0.497c0.278-1.114,1.203-1.887,1.455-3c0.044-0.199-0.212-0.121-0.278-0.019
					c-0.529,0.831-1.381,1.541-1.913,2.4c-2.209-4.324-4.408-8.595-5.978-13.32c-2.067-6.232-3.273-12.752-4.036-19.288
					c0.149-2.495,0.1-5.021-0.23-7.589c-1.858-14.413-7.581-26.782-19.56-35.514c-11.169-8.14-25.676-8.713-38.913-8.726
					c-7.133-0.008-14.01,1.001-20.86,2.951c-1.994,0.571-4.767,1.436-7.151,2.642c-3.826,0.063-7.723,0.207-11.418,0.851
					c-7.861,1.368-15.317,5.818-17.987,13.677c-3.587,10.558-3.506,22.159-1.659,33.061c1.001,5.904,2.429,11.973,5.184,17.324
					c1.462,2.846,3.291,6.224,5.485,8.881c0.063,0.084,0.123,0.173,0.186,0.257c0,0.021-0.013,0.045-0.005,0.066
					c2.82,5.955,2.911,13.729,3.48,20.225c0.611,7.007,0.616,14.052,0.107,21.066c-0.288,3.981-0.87,7.94-1.638,11.856
					c-0.333,1.703-0.925,3.362-1.413,5.029c-0.354,1.837-0.503,3.727,0.582,5.259c0.354,0.496,0.783,0.901,1.245,1.271
					c2.057,0.964,4.83,1.268,6.187,1.396c4.995,0.469,10.477-0.741,15.165-2.358c5.487-1.895,4.395-3.383,3.608-8.404
					c-0.498-3.189,0.283-6.656,0.655-9.821c0.422-3.554,0.744-7.115,1.2-10.663c0.661-5.11,1.824-10.315,2.214-15.49
					c4.067,12.206,5.262,25.733,6.326,38.365c-0.642,2.648-2.61,5.254-1.394,7.848c0.972,2.068,4.355,1.979,6.176,1.921
					c3.145-0.1,6.258-0.442,9.274-1.386c1.839-0.577,4.714-0.825,6.392-2.193c0.17-0.003,0.374-0.076,0.597-0.263
					c0.595-0.503,1.384-1.221,1.3-2.13c-0.275-2.985-1.457-4.751-0.88-8.056c0.228-1.308,0.472-2.604,0.718-3.899
					c5.11-0.487,11.143-2.679,11.895-8.252c0.715-5.304,0.568-10.826,0.456-16.175c-0.11-5.146,0.419-10.642-0.147-15.749
					c0.705-0.38,1.41-0.763,2.102-1.169c2.723,5.307,4.321,11.921,5.026,17.76c0.495,4.091,0.44,8.252,0.445,12.363
					c0.003,1.919-0.721,5.818,0.008,8.19c0.435,0.938,1.093,1.667,1.926,2.215c1.902,1.051,4.615,1.121,7.337,0.813
					c1.227-0.165,2.4-0.417,3.428-0.685c2.841-0.739,5.454-1.63,7.898-3.084c0.202-0.199,0.395-0.403,0.566-0.61
					c0.64-0.776,1.072-1.628,1.392-2.521c0.102-1.698-0.026-3.504-0.047-4.234c-0.142-4.958-1.014-9.836-1.887-14.707
					c-0.828-4.62-1.564-9.226-1.892-13.915c-0.189-2.731-0.262-5.344,0.262-7.907c0.008-0.438,0.011-0.878,0.021-1.315
					c0.005-0.008,0.011-0.016,0.016-0.021c2.128-5.275,4.316-10.603,5.915-16.043c1.046,4.741,2.495,9.154,4.612,13.643
					c1.24,2.626,3.061,5.663,5.152,8.309c-0.262,0.129-0.516,0.289-0.768,0.414c-0.262,0.132-0.535,0.252-0.807,0.363
					c-0.1,0.036-0.199,0.07-0.301,0.097c-0.037,0.005-0.071,0.016-0.107,0.026c-0.021,0.011-0.029,0.013-0.042,0.016
					c0.01,0,0.018-0.003,0.029,0c-0.016-0.003-0.034,0.005-0.05,0.011c0.005-0.003,0.016-0.008,0.021-0.011
					c-0.024,0.003-0.042,0.011-0.044,0.016c-0.103,0.039-0.199,0.171-0.134,0.254c0.016,0.029,0.018,0.026,0.01-0.01
					c0.005,0.067,0.042,0.104,0.107,0.112c0.454,0.073,0.967-0.037,1.415-0.115c0.427-0.076,0.891-0.204,1.232-0.484
					c0.199,0.24,0.398,0.484,0.603,0.718c-0.314,0.296-0.6,0.634-0.792,0.817c-0.403,0.401-0.726,0.896-1.048,1.362
					c-0.262,0.372-0.616,0.845-0.582,1.324c0.013-0.008,0.026-0.014,0.037-0.021c0.013,0.207,0.233,0.322,0.54,0.063
					c0.637-0.54,1.177-1.192,1.793-1.748c0.301-0.272,0.658-0.527,0.954-0.823c0.497,0.517,1.006,0.982,1.517,1.423
					c-0.333,1.051-0.587,2.249-0.396,3.26c0.04,0.199,0.362-0.055,0.38-0.162c0.142-0.81,0.524-1.641,0.765-2.477
					c0.029,0.023,0.058,0.05,0.086,0.076c0.346,0.26,1.085-0.299,0.894-0.705c-0.186-0.391-0.38-0.763-0.569-1.147
					C211.251,94.129,212.68,93.558,212.494,93.19z"/>
				<path style="fill:#D1D3D4;" d="M98.541,149.8c-0.961-0.152-1.897-0.354-2.78-0.624c-1.908-0.576-2.521-2.393-2.513-4.641
					c0.745-1.902,2.503-3.488,4.578,0.1C98.654,146.064,98.61,148.125,98.541,149.8z"/>
				<path style="fill:#D1D3D4;" d="M99.233,149.907c0.226-1.415,0.548-2.477,1.242-3.805c2.283-3.937,4.345-0.949,4.036,1.764
					c0.042,0.736,0.124,1.47,0.228,2.201C102.871,150.178,101.008,150.136,99.233,149.907z"/>
				<path style="fill:#D1D3D4;" d="M105.533,150.018c0.27-1.114,2.309-9.271,5.716-3.218c0.356,0.631,0.516,1.352,0.823,2.012
					C110.004,149.415,107.776,149.829,105.533,150.018z"/>
				<path style="fill:#D1D6CF;" d="M117.743,133.016c-0.333,2.77-0.634,5.439-0.475,8.233c0.165,2.922,1.523,4.922-2.094,6.468
					c-0.715,0.304-1.465,0.584-2.243,0.836c-0.002-0.008,0-0.016-0.002-0.023c-1.224-3.412-3.837-6.589-6.712-2.571
					c-0.401,0.559-0.65,1.437-0.875,2.063c-0.011,0.019-0.016,0.031-0.024,0.05c-0.044-0.64-0.068-1.284-0.199-1.91
					c-0.33-1.58-1.329-3.428-3.268-2.603c-1.166,0.495-2.149,2.439-2.55,3.522c-0.06,0.165-0.113,0.316-0.157,0.461
					c-0.005-0.073-0.011-0.142-0.016-0.223c-0.152-1.431-0.503-2.699-1.213-3.962c-0.792-1.407-2.293-1.57-3.632-1.138
					c-0.451,0.144-0.75,0.534-0.967,1.006c0.346-3.682,1.9-8.039,2.214-10.092c0.894-5.83,1.161-11.745,1.148-17.639
					c-0.011-5.624-0.467-11.266-1.064-16.855c-0.325-3.042-0.598-8.063-2.275-11.18c2.39,2.642,5.199,4.948,7.697,6.664
					c6.192,4.264,12.99,6.969,20.516,6.879c0.097,0.247,0.181,0.496,0.272,0.739C120.924,112.169,118.99,122.611,117.743,133.016z"
					/>
				<path style="fill:#D1D6CF;" d="M121.825,101.741c-0.092-0.243-0.175-0.492-0.272-0.739c-7.526,0.09-14.324-2.615-20.516-6.879
					c-2.498-1.716-5.307-4.022-7.697-6.664c1.677,3.116,1.95,8.138,2.275,11.18c0.259,2.427,0.482,4.861,0.663,7.301
					c0.207-0.702,0.445-1.396,0.752-2.063c1.059-2.298,2.408-4.3,5.134-4.36c2.29-0.053,4.35,2.141,5.44,3.912
					c3.456,5.613,3.328,12.729,3.646,19.094c0.374,7.604,0.031,15.176-0.108,22.771c0.737,0.841,1.35,2.021,1.788,3.236
					c0.002,0.008,0,0.016,0.002,0.023c0.778-0.252,1.528-0.532,2.243-0.836c3.616-1.546,2.259-3.546,2.094-6.468
					c-0.16-2.794,0.142-5.464,0.475-8.233C118.99,122.611,120.924,112.169,121.825,101.741z"/>
				<path style="fill:#D1D6CF;" d="M98.028,120.516c-0.071-8.276-0.247-16.932-2.718-24.883c0.121,1.101,0.212,2.139,0.304,3.006
					c0.597,5.59,1.053,11.231,1.064,16.855c0.013,5.894-0.254,11.808-1.148,17.639c-0.314,2.053-1.869,6.41-2.214,10.092
					c0.217-0.472,0.516-0.862,0.967-1.006c0.472-0.152,0.962-0.223,1.436-0.202c0.496-1.685,0.849-3.414,1.135-5.094
					C97.776,131.477,98.078,126.034,98.028,120.516z"/>
				<path style="fill:#D1D3D4;" d="M131.697,151.092c-0.956-0.058-2.225-0.529-2.767-1.426c-0.032-0.319-0.065-0.684-0.063-0.763
					c0.013-0.681,0.113-1.378,0.27-2.038c0.356-1.525,1.58-2.343,3.042-1.609c1.955,0.982,2.028,3.976,2.51,5.786
					C133.686,151.113,132.68,151.154,131.697,151.092z"/>
				<path style="fill:#D1D3D4;" d="M139.569,150.625c-1.391,0.247-2.851,0.357-4.3,0.383h-0.008
					c0.115-0.128,0.191-0.277,0.139-0.377c0.031-0.32,0.021-0.697-0.024-1.107c0.32-1.121,0.917-2.368,1.109-2.77
					c1.143-2.388,3.76-1.46,4.512,0.467c0.388,0.993,0.506,2.067,0.624,3.121C140.942,150.471,140.253,150.56,139.569,150.625z"/>
				<path style="fill:#D1D3D4;" d="M147.989,148.474c-1.208,0.503-2.712,0.917-4.135,1.253c-0.411,0.16-0.836,0.285-1.266,0.396
					c0-0.003,0.005-0.011,0.002-0.019c-0.016-0.542-0.07-1.095-0.162-1.638c0.023-0.393,0.089-0.786,0.209-1.177
					c1.793-2.686,3.161-3.215,4.104-1.59c0.613,0.804,1.027,1.789,1.504,2.696C148.159,148.419,148.086,148.458,147.989,148.474z"/>
				<path style="fill:#D1D3D4;" d="M151.629,133.435c0.309-1.604,0.613-3.205,0.907-4.809c0.002,0.003,0.002,0.003,0.002,0.003
					c0.055,0.01,0.147-0.076,0.123-0.137c0.11,0.011,0.291,0.019,0.577,0.031c0.199,0.11,0.375,0.246,0.527,0.414
					c0.364,0.352,0.642,0.802,0.859,1.253c0.391,0.797,0.291,1.675,0.472,2.505C153.956,133.02,152.774,133.251,151.629,133.435z"/>
				<path style="fill:#D1D6CF;" d="M162.203,103.167c-0.23,3.695-0.005,7.403,0.026,11.101c0.034,3.881,0.063,7.891-0.37,11.743
					c-0.401,3.579-2.882,5.38-5.844,6.393c0.205-1.524-0.398-3.123-1.617-4.059c-0.31-0.236-1.253-0.551-1.756-0.317
					c0.464-2.573,0.883-5.157,1.171-7.788c0.784-7.168,1.203-14.363,1.132-21.572c2.665-1.06,5.349-2.275,7.962-3.651
					C162.098,96.933,162.287,101.841,162.203,103.167z"/>
				<path style="fill:#D1D6CF;" d="M162.203,103.167c-0.23,3.695-0.005,7.403,0.026,11.101c0.034,3.881,0.063,7.891-0.37,11.743
					c-0.401,3.579-2.882,5.38-5.844,6.393c0.205-1.524-0.398-3.123-1.617-4.059c-0.31-0.236-1.253-0.551-1.756-0.317
					c0.464-2.573,0.883-5.157,1.171-7.788c0.784-7.168,1.203-14.363,1.132-21.572c2.665-1.06,5.349-2.275,7.962-3.651
					C162.098,96.933,162.287,101.841,162.203,103.167z"/>
				<path style="fill:#D1D3D4;" d="M177.132,133.115c-0.021,0.157-0.104,0.312-0.288,0.39c-1.124,0.482-2.568-0.484-3.407-1.16
					c-0.466-0.38-1.025-0.98-0.799-1.646c0.218-0.645,0.742-1.189,1.339-1.509c2.393-1.273,3.205,1.845,3.275,3.621
					C177.258,132.924,177.203,133.025,177.132,133.115z"/>
				<path style="fill:#D1D3D4;" d="M183.456,132.858c-0.136,0.016-0.27,0.021-0.409,0.036c-0.128,0.118-0.29,0.218-0.497,0.283
					c-1.182,0.375-2.699,0.66-3.939,0.49c-0.233-0.034-0.39-0.118-0.493-0.233c-0.039-0.003-0.079,0-0.118,0
					c0.021-0.045,0.034-0.087,0.039-0.131c-0.044-0.087-0.079-0.181-0.086-0.286c-0.304-0.684,0.31-2.295,0.454-2.667
					c0.521-1.332,2.214-2.359,3.559-1.426c0.763,0.532,1.703,2.251,1.431,3.364C183.421,132.486,183.442,132.68,183.456,132.858z"/>
				<path style="fill:#D1D3D4;" d="M188.028,131.975c-0.815,0.721-2.333,0.802-3.37,0.811c-0.079,0.002-0.155-0.024-0.223-0.061
					c-0.055,0.008-0.11,0.019-0.168,0.028c0.003-0.067-0.002-0.139-0.002-0.207c-0.06-0.102-0.092-0.223-0.052-0.343
					c-0.003-0.006-0.008-0.008-0.008-0.014c-0.199-1.459,1.648-3.76,3.163-2.602C187.923,130.015,188.741,131.344,188.028,131.975z"
					/>
				<path style="fill:#D1D6CF;" d="M194.629,70.143c-0.713,3.1-2.015,6.024-3.218,8.97c-1.022,3.412-2.403,6.659-2.98,10.228
					c-0.003,0.547-0.008,1.093,0.003,1.64c0.121,6.664,1.253,13.433,2.675,19.938c1.237,5.655,1.342,11.493,1.261,17.279
					c-0.818,1.479-2.089,2.526-3.611,3.263c-0.238-1.373-0.807-3.577-2.393-3.006c-1.315,0.475-1.923,1.295-2.29,2.322
					c-0.414-1.779-1.515-3.31-3.572-3.079c-1.368,0.154-2.241,1.446-2.775,2.875c-0.356-1.594-1.111-3.121-2.705-2.97
					c-0.679,0.065-2.049,0.685-2.833,1.52c-0.084-0.797-0.032-1.651,0.097-2.514c-0.317-3.889,0.241-8.527,0.178-10.679
					c-0.152-5.097-0.878-10.013-2.455-14.861c-0.805-2.471-1.869-5.93-3.824-7.885c10.818-6.46,19.688-16.007,19.783-29.642
					c0-0.178-0.275,0-0.283,0.121c-0.652,8.81-5.616,16.897-11.971,22.767c-2.688,2.484-5.634,4.606-8.779,6.467
					c-3.184,1.885-6.753,2.864-10.018,4.573c-0.16-6.154-1.171-11.421-3.021-17.246c0.005,0.904,0.058,1.813,0.126,2.72
					c1.829,10.781,1.672,21.515,0.791,32.485c-0.388,4.798-0.957,9.555-1.792,14.279c-0.32,3.582-1.294,7.057-2.028,10.574
					c0.582,2.259,1.221,5.016,0.671,6.7c0.013,0.207,0.018,0.401,0.011,0.566c-0.168,0.131-0.364,0.259-0.577,0.382
					c-0.079,0.079-0.181,0.132-0.272,0.194c-0.503-2.078-1.743-5.359-4.35-3.931c-1.198,0.66-2.005,1.575-2.463,2.657
					c-0.744-2.033-2.259-3.341-4.882-1.9c-0.652,0.356-1.491,1.861-1.979,3.357c-0.582-2.309-2.112-4.814-4.413-4.041
					c-0.448,0.149-0.791,0.401-1.087,0.697c0.176-0.92,0.275-1.851,0.385-2.775c-0.262-9.002-1.342-18.1-2.987-26.879
					c-1.934-10.313-4.762-20.894-12.718-28.248c-0.121-0.11-0.372,0.128-0.275,0.257c2.993,3.988,5.333,8.349,7.196,12.946
					c-6.446-0.933-12.484-3.095-18.008-6.604c-4.334-2.754-10.251-7.445-13.391-12.385c-0.773-1.59-1.501-3.2-2.288-4.633
					c-2.097-3.813-3.229-8.103-4.264-12.304c-2.523-10.236-3.134-21.127-1.455-31.528c0.831-5.147,2.319-10.186,6.122-13.941
					c4.025-3.975,10.464-5.624,15.97-5.754c1.483-0.034,2.961-0.102,4.439-0.176c3.813-0.293,7.649-0.299,11.473-0.556
					c2.752-0.184,5.548-0.445,8.333-0.487c-4.133-0.886-8.606-0.873-12.668-0.813c-0.792,0.013-1.593,0.023-2.398,0.034
					c3.313-1.234,7.141-1.923,9.893-2.555c6.764-1.554,13.86-1.638,20.76-1.415c12.822,0.409,25.519,2.06,35.896,10.32
					c11.019,8.771,15.33,21.182,17.06,34.67C197.509,58.211,195.982,64.252,194.629,70.143z"/>
				<path style="fill:#D1D6CF;" d="M194.629,70.143c1.352-5.891,2.88-11.931,2.099-18c-1.164-9.08-3.509-17.668-8.273-24.99
					c2.513,8.564,3.076,18.242-0.299,26.315c-1.96,4.688-5.205,8.276-9.502,10.977c-4.083,2.566-10.207,5.55-15.053,3.253
					c-5.17-2.45-7.125-8.803-8.603-13.874c-1.992-6.832-4.413-13.726-8.242-19.769c-8.695-13.737-24.777-21.795-40.967-20.847
					c-0.178,0.011-0.309-0.05-0.401-0.146c-0.482,0.018-0.964,0.047-1.449,0.058c-5.506,0.131-11.944,1.779-15.97,5.754
					c-3.802,3.755-5.291,8.795-6.122,13.941c-1.68,10.401-1.069,21.292,1.455,31.528c1.035,4.201,2.167,8.491,4.264,12.304
					c0.786,1.433,1.515,3.042,2.288,4.633c3.14,4.94,9.057,9.631,13.391,12.385c5.524,3.509,11.562,5.671,18.008,6.604
					c-1.863-4.597-4.203-8.958-7.196-12.946c-0.097-0.129,0.154-0.367,0.275-0.257c3.96,3.661,6.648,8.122,8.59,12.949
					c-0.503-2.715-0.891-5.49-0.847-8.243c0.04-2.481,0.212-5.927,2.731-7.224c2.872-1.481,7.046,1.818,8.986,3.53
					c7.901,6.981,10.225,17.98,10.833,28.075c0.555,9.245-1.198,18.967-0.542,28.305c0.131-0.087,0.251-0.182,0.393-0.26
					c2.607-1.429,3.847,1.853,4.35,3.931c0.092-0.063,0.194-0.115,0.272-0.194c0.212-0.123,0.409-0.251,0.577-0.382
					c0.008-0.165,0.002-0.359-0.011-0.566c0.55-1.685-0.089-4.441-0.671-6.7c0.734-3.518,1.709-6.992,2.028-10.574
					c0.836-4.725,1.405-9.481,1.792-14.279c0.88-10.97,1.038-21.704-0.791-32.485c-0.068-0.907-0.121-1.816-0.126-2.72
					c1.85,5.825,2.861,11.092,3.021,17.246c3.265-1.709,6.834-2.688,10.018-4.573c3.145-1.861,6.09-3.983,8.779-6.467
					c6.355-5.87,11.318-13.957,11.971-22.767c0.008-0.121,0.283-0.299,0.283-0.121c-0.094,13.635-8.965,23.182-19.783,29.642
					c1.253,1.252,2.139,3.123,2.825,4.958c0.414-1.41,1.051-2.738,2.039-3.905c2.694-3.184,7.843-6.255,10.343-1.095
					c3.213,6.63,3.265,15.529,3.218,22.744c-0.032,4.835-0.314,9.659-0.655,14.476c0.042,0.139,0.087,0.275,0.118,0.414
					c0.367-1.027,0.975-1.848,2.29-2.322c1.585-0.571,2.154,1.633,2.393,3.006c1.523-0.736,2.794-1.784,3.611-3.263
					c0.081-5.786-0.023-11.624-1.261-17.279c-1.423-6.505-2.555-13.273-2.675-19.938c-0.011-0.547-0.005-1.093-0.003-1.64
					c0.577-3.569,1.958-6.816,2.98-10.228C192.614,76.167,193.917,73.243,194.629,70.143z"/>
				<path style="fill:#D1D6CF;" d="M208.495,93.075c0.011-0.131-0.005-0.277-0.105-0.354c-0.103-0.079-0.215-0.113-0.325-0.123
					c-2.594-2.954-4.788-6.801-6.305-9.87c-1.21-2.45-2.24-5.039-3.126-7.621c-0.813-2.377-1.043-5.005-1.997-7.303
					c0.6-2.28,1.083-4.583,1.402-6.913c0.446,4.429,1.219,8.808,2.332,13.179c1.816,7.141,5.16,13.058,8.449,19.366
					C208.707,93.324,208.605,93.193,208.495,93.075z"/>
				<path style="fill:#5E2C00;" d="M136.925,116.733c-2.424,0.985-4.442,0.815-6.892-0.016c-0.21-0.07-0.694,0.341-0.456,0.506
					c2.377,1.659,5.246,2.073,7.534,0.026C137.355,117.035,137.344,116.561,136.925,116.733z"/>
				<path style="fill:#5E2C00;" d="M103.88,116.092c-0.875-0.233-2.023-0.037-2.927,0.034c-0.718,0.055-1.342-0.008-2.026-0.229
					c-0.438-0.142-0.731-0.542-1.129-0.746c-0.089-0.045-0.223,0.075-0.238,0.159c-0.16,1.062,1.08,2.251,2.046,2.414
					c0.663,0.115,1.685,0.028,2.361-0.061c0.784-0.103,1.46-0.341,1.921-1.001C103.977,116.534,104.142,116.16,103.88,116.092z"/>
				<path style="fill:#5E2C00;" d="M182.006,105.787c-2.705,0.978-5.296,1.489-8.132,0.795c-0.087-0.021-0.178,0.049-0.199,0.131
					c-0.367,1.473,2.293,1.69,3.224,1.739c1.926,0.1,4.268-0.519,5.409-2.169C182.512,105.986,182.405,105.644,182.006,105.787z"/>
			</g>
			<g>
				<path style="fill:#5E2C00;" d="M148.943,46.647c-1.929-5.799-4.471-11.077-8.635-15.621c-3.643-3.973-8.815-7.068-14.306-7.38
					c-0.142-0.008-0.28-0.008-0.422-0.016c-6.245-7.558-15.807-12.212-26.42-13.76c-11.313-1.654-22.914,1.748-32.172,8.307
					c-3.7-0.401-7.762,0.663-10.865,2.083c-7.16,3.276-13.729,9.269-18.957,15.05c-5.569,6.156-9.29,11.546-4.135,19.175
					c4.439,6.567,10.417,10.071,17.78,12.374c-2.987,5.244-7.262,9.392-14.169,7.076c-6.939-2.327-8.724-10.556-9.521-16.855
					c-0.579-4.588-0.574-9.138-1.934-13.59c-0.624-2.054-2.267-6.03-4.555-6.897c0.43-2.864-0.404-6.428-3.732-5.283
					c-2.503,0.862-4.057,2.985-4.825,5.443c-0.068,0.22-0.181,0.582-0.28,0.993c-0.818,0.144-1.46,0.448-2.201,0.878
					c-1.753,1.014-3.197,2.497-4.229,4.227c-0.645,1.08-1.329,3.021-0.323,4.12c1.192,1.297,3.26,1.68,4.94,1.373
					c0.1-0.021,0.244-0.115,0.359-0.239c1.318,4.882,0.967,10.061,1.84,15.084c1.059,6.098,2.678,12.057,5.466,17.603
					c5.021,9.996,12.73,17.036,23.637,19.961c9.4,2.519,21.725-0.635,30.05-5.168c4.282-2.335,8.391-5.6,11.63-9.526
					c10.081,2.042,21.216-2.201,29.371-8.11c0.637-0.359,1.281-0.711,1.908-1.085c1.2,0.946,2.684,1.656,4.541,2.054
					c5.23,1.117,11.174-2.288,15.539-4.69c5.275-2.904,10.11-6.911,13.826-11.643C151.988,57.7,150.761,52.129,148.943,46.647z"/>
				<path style="fill:#D1D6CF;" d="M38.109,57.905c-1.984-2.063-3.787-4.23-5.239-6.701c-2.938-4.995,0.152-9.311,3.257-13.184
					c4.209-5.247,9.534-9.885,15.003-13.763C55.098,21.442,60.754,18.751,66,18.9c-2.487,1.858-4.803,3.936-6.874,6.221
					c-6.187,6.837-9.599,15.836-10.479,24.919c-0.417,4.334-0.16,10.519,1.819,15.495C46.016,63.253,41.762,61.699,38.109,57.905z"
					/>
				<path style="fill:#D1D6CF;" d="M32.213,45.976c1.675-4.332,4.851-7.55,8.058-10.808c3.771-3.828,7.747-7.73,12.256-10.697
					c1.866-1.227,3.96-2.513,6.19-2.946c1.572-0.306,3.168-0.422,4.756-0.595c0.823-0.7,1.661-1.384,2.526-2.031
					c-5.246-0.149-10.901,2.542-14.869,5.356c-5.469,3.878-10.794,8.517-15.003,13.763c-2.343,2.919-4.669,6.093-4.418,9.617
					C31.836,47.074,32.001,46.518,32.213,45.976z"/>
				<path style="fill:#D1D6CF;" d="M48.646,50.041c0.694-7.157,2.969-14.256,6.923-20.294c-0.825,0.815-1.604,1.693-2.306,2.676
					c-1.994,2.783-3.878,5.865-4.84,9.169c-0.781,2.678-1.258,5.521-2.411,8.074c-0.912,2.013-2.004,3.923-4.245,4.531
					c-1.887,0.511-4.387-0.705-5.87-1.771c-1.795-1.292-3.202-2.806-4.153-4.525c0.115,1.069,0.459,2.17,1.127,3.304
					c1.452,2.471,3.255,4.639,5.239,6.701c3.653,3.794,7.906,5.348,12.356,7.631C48.487,60.559,48.23,54.375,48.646,50.041z"/>
				<path style="fill:#D1D6CF;" d="M148.98,57.428c-0.409,5.946-8.223,11.248-12.694,14.237c-5.346,3.575-13.485,8.037-19.812,4.741
					c-0.265-0.139-0.5-0.304-0.742-0.466c0.045-0.029,0.089-0.061,0.134-0.089c-0.267-0.146-0.521-0.317-0.773-0.503
					c-0.024,0.016-0.047,0.031-0.071,0.047c-0.349-0.293-0.661-0.626-0.956-0.975c-0.527-0.571-0.996-1.245-1.389-2.034
					c-0.105-0.207-0.197-0.417-0.289-0.627c-0.026-0.055-0.05-0.11-0.076-0.165c-0.034-0.084-0.071-0.167-0.105-0.249
					c-0.841-1.939-1.384-4.146-1.858-6.336c-0.011-0.034-0.019-0.068-0.029-0.102c-0.686-2.427-1.572-4.714-2.781-6.902
					c-0.003,0.029-0.01,0.058-0.003,0.083c1.599,6.048,1.562,13.976,6.056,18.208c-0.584,0.367-1.174,0.716-1.769,1.069
					c-4.581,2.442-8.794,4.835-13.925,6.454c-4.835,1.525-9.309,1.147-13.983,1.022c2.199-2.919,3.9-6.171,4.866-9.644
					c-0.338,0.487-0.689,0.967-1.064,1.462c-1.392,1.83-2.502,3.766-3.771,5.666c-0.836,1.252-1.74,2.351-2.77,3.307
					c0.005,0,0.013,0.003,0.016,0.003c-3.826,4.651-8.679,8.276-14.982,10.986c-10.975,4.72-23.677,4.782-34.038-1.261
					c-8.585-5.008-13.617-14.534-16.599-23.666c-1.779-5.461-2.565-11.127-2.974-16.832c-0.184-2.547-0.611-4.9-1.557-7.112
					c-2.223,0.225-4.649-0.037-5.338-2.128c-0.61-1.86,1.36-4.007,2.529-5.178c1.138-1.137,2.574-1.939,4.13-2.353
					c0.419-1.305,0.996-2.566,1.827-3.614c0.878-1.111,2.188-2.584,3.755-2.016c1.855,0.676,2.238,3.968,2.067,6.206
					c0.134-0.275,0.257-0.576,0.357-0.912c3.747,2.198,4.429,10.938,4.704,14.022c0.424,4.732,0.729,9.348,1.997,13.941
					c2.066,7.479,9.023,11.884,16.565,10.238c3.333-0.729,5.815-3.519,7.754-6.824c1.247-2.791,2.469-5.603,3.871-8.289
					c0.058-0.186,0.113-0.372,0.17-0.553c0.249-0.64,0.49-1.25,0.718-1.8c2.432-5.91,5.076-11.048,11.03-14.151
					c2.159-1.127,4.612-1.908,7.154-2.333c0.058-0.063,0.131-0.115,0.231-0.149c2.754-0.941,5.781-1.237,8.713-0.888
					c-5.136-1.543-11.475,0.055-16.221,2.133c-0.975,0.527-1.929,1.09-2.835,1.732c-1.465,1.033-2.867,2.209-4.119,3.522
					c-3.003,3.769-4.819,8.664-6.617,12.935c-0.576,1.368-1.208,2.783-1.913,4.159c-1.782-5.097-1.784-11.41-1.457-15.744
					c0.647-8.501,4.271-16.612,9.565-23.208c2.275-2.835,4.95-5.289,7.888-7.361c0.721-0.571,1.488-1.074,2.312-1.504
					c9.088-5.54,20.314-7.636,30.746-5.757c8.855,1.598,16.672,5.605,22.193,11.769c-1.918,0.113-3.771,0.448-5.721,1.059
					c-1.467,0.463-3.142,1.562-4.777,2.316c1.281-0.335,2.809-0.894,3.145-0.993c0.309-0.092,0.621-0.186,0.93-0.283
					c0.676-0.28,1.336-0.529,1.96-0.689c1.52-0.391,3.047-0.537,4.562-0.509c0.228,0,0.456,0.005,0.684,0.016
					c0.011,0.002,0.021,0,0.029,0c0.002,0,0,0.002,0.002,0.002c1.043,0.05,2.078,0.212,3.066,0.5
					c-0.019-0.026-0.037-0.055-0.058-0.081c3.271,0.721,6.379,2.251,9.08,4.253C143.51,35.006,149.637,47.76,148.98,57.428z"/>
				<path style="fill:#D1D6CF;" d="M25.203,58.696c0.131,8.839,3.242,21.604,14.727,20.535c9.308-0.865,14.41-7.828,16.968-16.239
					c1.266-4.172,1.89-9.025,4.395-12.697c1.596-2.337,3.663-4.132,5.794-5.904c-5.889,3.108-8.52,8.223-10.938,14.101
					c-0.228,0.55-0.469,1.161-0.718,1.8c-0.058,0.181-0.113,0.367-0.17,0.553c-1.402,2.686-2.623,5.498-3.871,8.289
					c-1.939,3.304-4.421,6.095-7.754,6.824c-7.542,1.646-14.499-2.759-16.565-10.238c-1.137-4.117-1.499-8.25-1.866-12.466
					C25.203,55.069,25.177,56.891,25.203,58.696z"/>
				<path style="fill:#D1D6CF;" d="M68.943,21.096c6.423-4.203,13.593-7.345,21.289-8.142c6.604-0.681,13.1,0.045,19.489,1.586
					c-2.862-1.187-5.907-2.086-9.096-2.662c-10.432-1.879-21.659,0.217-30.746,5.757c-0.823,0.43-1.591,0.933-2.312,1.504
					c-2.938,2.073-5.613,4.526-7.888,7.361c-3.006,3.745-5.472,7.977-7.16,12.495C56.482,31.715,62.504,25.308,68.943,21.096z"/>
				<path style="fill:#D1D6CF;" d="M15.557,43.148c-1.462,1.271-4.638,3.716-7.377,4.085c0.505,0.133,1.019,0.249,1.53,0.291
					c0.82-0.094,1.641-0.293,2.447-0.547c1.119-0.525,2.178-1.182,3.171-1.916c1.52-1.124,2.487-2.924,3.677-4.366
					c0.658-0.799,1.407-1.64,2.23-2.249c-0.269-0.267-0.553-0.508-0.865-0.691c-0.1,0.335-0.223,0.637-0.357,0.912
					c0.17-2.238-0.212-5.529-2.067-6.206c-0.844-0.306-1.609-0.013-2.277,0.49c0.55-0.029,1.119,0.079,1.693,0.37
					C21.233,35.279,17.638,41.34,15.557,43.148z"/>
				<path style="fill:#D1D6CF;" d="M53.484,61.293c0.427-1.017,0.857-2.07,1.305-3.134c0.414-1.226,0.925-2.416,1.567-3.553
					c1.051-2.217,2.251-4.371,3.745-6.248c1.103-1.158,2.337-2.191,3.616-3.134c0.029-0.073,0.076-0.149,0.155-0.215
					c0.786-0.671,1.624-1.164,2.484-1.507c0.233-0.133,0.464-0.27,0.7-0.398c0.569-0.249,1.159-0.49,1.767-0.72
					c2.041-0.999,4.208-1.625,6.412-1.735c2.27-0.356,4.563-0.409,6.701,0.003c3.464-0.37,6.983-0.372,10.524-0.134
					c4.812,0.322,9.285,0.815,13.223,3.326c0.307,0.026,0.613,0.052,0.92,0.079c-7.846-4.845-17.726-6.808-26.816-5.682
					c-5.862,0.729-12.249,2.042-17.466,4.906c-3.946,2.165-5.87,6.093-9.395,8.713c-0.251,0.186-0.629,0.037-0.775-0.204
					c-1.816-2.985-1.18-6.813-0.469-10.176c-0.813,2.673-1.352,5.43-1.567,8.229c-0.327,4.334-0.325,10.647,1.457,15.744
					C52.276,64.076,52.908,62.661,53.484,61.293z"/>
				<path style="fill:#D1D6CF;" d="M135.722,29.238c-2.702-2.002-5.81-3.532-9.08-4.253c0.021,0.026,0.039,0.055,0.058,0.081
					c-0.988-0.288-2.023-0.451-3.066-0.5c-0.002,0,0-0.002-0.002-0.002c-0.008,0-0.018,0.002-0.029,0
					c-0.228-0.011-0.456-0.016-0.684-0.016c-1.515-0.028-3.042,0.118-4.562,0.509c-0.624,0.16-1.284,0.409-1.96,0.689
					c-0.309,0.097-0.621,0.191-0.93,0.283c-0.336,0.1-1.863,0.658-3.145,0.993c1.635-0.755,3.31-1.853,4.777-2.316
					c1.95-0.611,3.803-0.946,5.721-1.059c-2.874-3.21-6.383-5.82-10.328-7.825c0.988,1.106,1.732,2.319,2.039,3.643
					c0.506,2.186-0.32,4.303-2.432,5.244c-3.907,1.74-7.979,3.512-10.173,7.343c8.52-3.781,18.724-6.902,26.879-0.482
					c6.523,5.134,9.775,15.493,8.339,23.569c-1.394,7.846-9.162,15.778-17.621,12.453c-8.703-3.423-8.698-14.476-14.306-20.71
					c1.438,4.816,0.933,10.723-0.817,14.995c-2.285,5.569-5.753,11.861-11.746,14.015c-0.516,0.186-0.831-0.427-0.642-0.834
					c1.947-4.172,3.475-9.437,2.275-14.051c-2.34,8.27-7.616,15.275-14.987,19.876c-4.24,2.647-9.025,4.361-13.711,6.054
					c-1.585,0.571-3.213,1.098-4.854,1.394c-3.191,1.248-6.672,2.167-10.133,2.453c-6.866,1.838-14.169,1.607-20.771-1.724
					c-3.865-1.95-7.249-4.588-10.205-7.66c2.982,5.65,7.026,10.741,12.547,13.962c10.361,6.043,23.063,5.98,34.038,1.261
					c6.303-2.71,11.156-6.335,14.982-10.986c-0.003,0-0.011-0.003-0.016-0.003c1.03-0.956,1.934-2.055,2.77-3.307
					c1.269-1.9,2.379-3.836,3.771-5.666c0.375-0.495,0.726-0.975,1.064-1.462c-0.967,3.472-2.667,6.724-4.866,9.644
					c4.675,0.125,9.149,0.503,13.983-1.022c5.131-1.62,9.345-4.012,13.925-6.454c0.595-0.354,1.185-0.702,1.769-1.069
					c-4.494-4.232-4.457-12.159-6.056-18.208c-0.008-0.026,0-0.055,0.003-0.083c1.208,2.188,2.094,4.476,2.781,6.902
					c0.01,0.034,0.018,0.068,0.029,0.102c0.474,2.191,1.017,4.398,1.858,6.336c0.034,0.082,0.071,0.165,0.105,0.249
					c0.026,0.055,0.049,0.11,0.076,0.165c0.092,0.21,0.184,0.419,0.289,0.627c0.393,0.788,0.862,1.462,1.389,2.034
					c0.296,0.349,0.608,0.681,0.956,0.975c0.023-0.016,0.047-0.031,0.071-0.047c0.252,0.186,0.506,0.356,0.773,0.503
					c-0.045,0.029-0.089,0.06-0.134,0.089c0.241,0.162,0.477,0.327,0.742,0.466c6.326,3.296,14.465-1.166,19.812-4.741
					c4.471-2.99,12.285-8.292,12.694-14.237C149.637,47.76,143.51,35.006,135.722,29.238z"/>
				<path style="fill:#5E2C00;" d="M16.288,36.083c-0.086-0.029-0.254,0.11-0.178,0.194c0.928,0.993,0.849,2.088,0.388,3.124
					c-1.669,1.494-4.72,1.434-6.245,3.221c-0.435,0.511-1.156,1.35-0.897,2.091c0.205,0.579,1.428,0.396,1.837,0.346
					c2.382-0.291,4.287-2.018,5.655-3.881C18.172,39.377,18.809,36.966,16.288,36.083z"/>
			</g>
		</g>
		<g>
			<g>
				<path style="fill:#5E2C00;" d="M95.334,38.358c-0.621,1.685-1.994,2.728-3.071,2.333c-1.072-0.396-1.433-2.083-0.81-3.768
					c0.623-1.685,1.997-2.728,3.069-2.333C95.596,34.985,95.958,36.673,95.334,38.358z"/>
			</g>
			<g>
				<path style="fill:#FFFFFF;" d="M93.83,36.45c-0.191,0.514-0.608,0.828-0.936,0.708c-0.325-0.118-0.438-0.634-0.247-1.143
					c0.189-0.514,0.608-0.833,0.933-0.713C93.909,35.423,94.019,35.934,93.83,36.45z"/>
			</g>
		</g>
		<g>
			<g>
				<path style="fill:#5E2C00;" d="M69.946,39.317c-0.623,1.688-1.996,2.728-3.069,2.333c-1.074-0.393-1.436-2.083-0.815-3.766
					c0.624-1.688,2-2.731,3.071-2.335C70.206,35.944,70.57,37.632,69.946,39.317z"/>
			</g>
			<g>
				<path style="fill:#FFFFFF;" d="M68.437,37.412c-0.186,0.508-0.606,0.825-0.931,0.705c-0.327-0.118-0.438-0.631-0.249-1.143
					c0.188-0.514,0.608-0.83,0.933-0.71C68.518,36.385,68.629,36.896,68.437,37.412z"/>
			</g>
		</g>
	</g>
	<path style="fill:#5E2C00;" d="M98.589,75.219c-0.498-0.103-1.053-0.15-1.536,0.06c-0.844,0.364-1.425,0.912-2.138,1.418
		c-0.079-0.003-0.181,0.041-0.223,0.099c-0.039,0.061-0.084,0.118-0.131,0.173c-0.052,0.063-0.131,0.244-0.005,0.286
		c0.414,0.136,0.765,0.039,1.179-0.068c0.359-0.094,0.645-0.079,0.922-0.016c-1.101,1.952-2.82,3.105-4.691,4.387
		c-1.454,0.996-5.034,2.933-7.175,2.419c-0.005-0.008-0.005-0.019-0.02-0.021l-0.59-0.207c-0.238-0.081-0.655,0.22-0.558,0.49
		c0.81,2.254,6.027-0.076,7.288-0.775c2.477-1.368,5.299-3.331,6.353-6.082c0.126,0.053,0.252,0.107,0.393,0.168
		c0.472,0.199,1.02-0.087,1.371-0.393C99.705,76.568,99.506,75.407,98.589,75.219z"/>
	<path style="fill:#5E2C00;" d="M76.901,15.457c-1.025-1.743-2.39-3.64-4.298-4.457c-0.121-0.053-0.349,0.178-0.207,0.257
		c0.983,0.542,1.67,1.331,2.285,2.253c0.542,0.818,0.975,1.732,1.74,2.369C76.637,16.057,77.04,15.69,76.901,15.457z"/>
	<path style="fill:#5E2C00;" d="M80.623,8.182c-0.068-0.191-0.401,0.055-0.356,0.218c0.482,1.756,0.521,3.674,1.221,5.359
		c0.129,0.304,0.618-0.094,0.561-0.346C81.655,11.665,81.228,9.87,80.623,8.182z"/>
	<path style="fill:#5E2C00;" d="M87.3,8.767c-0.005-0.293-0.467-0.026-0.472,0.184c-0.024,1.334-0.095,2.657-0.218,3.983
		c-0.031,0.333,0.495,0.008,0.532-0.207C87.362,11.416,87.323,10.09,87.3,8.767z"/>
	<path style="fill:#5E2C00;" d="M95.232,6.951c-1.038,1.63-1.706,3.671-2.159,5.54c-0.079,0.325,0.356,0.144,0.44-0.018
		c0.915-1.735,1.09-3.758,2.031-5.49C95.68,6.731,95.326,6.801,95.232,6.951z"/>
	<path style="fill:#5E2C00;" d="M67.2,14.558c-0.157-0.134-0.514,0.165-0.373,0.328c0.469,0.539,0.975,1.048,1.457,1.575
		c0.506,0.558,0.962,1.174,1.497,1.704c0.209,0.209,0.598-0.17,0.548-0.404C70.015,16.324,68.238,15.431,67.2,14.558z"/>
</g>
</svg>
