<?xml version="1.0" encoding="UTF-8" standalone="no"?>
<!-- Created with Inkscape (http://www.inkscape.org/) -->

<svg
   width="224.56085mm"
   height="177.12061mm"
   viewBox="0 0 224.56085 177.1206"
   version="1.1"
   id="svg5"
   xml:space="preserve"
   inkscape:version="1.2.2 (b0a84865, 2022-12-01)"
   sodipodi:docname="capybara2c4E6g8.svg"
   xmlns:inkscape="http://www.inkscape.org/namespaces/inkscape"
   xmlns:sodipodi="http://sodipodi.sourceforge.net/DTD/sodipodi-0.dtd"
   xmlns="http://www.w3.org/2000/svg"
   xmlns:svg="http://www.w3.org/2000/svg"
   xmlns:rdf="http://www.w3.org/1999/02/22-rdf-syntax-ns#"
   xmlns:cc="http://creativecommons.org/ns#"
   xmlns:dc="http://purl.org/dc/elements/1.1/"><title
     id="title76551">capybara</title><sodipodi:namedview
     id="namedview7"
     pagecolor="#ffffff"
     bordercolor="#000000"
     borderopacity="0.25"
     inkscape:showpageshadow="2"
     inkscape:pageopacity="0.0"
     inkscape:pagecheckerboard="0"
     inkscape:deskcolor="#d1d1d1"
     inkscape:document-units="mm"
     showgrid="false"
     inkscape:zoom="0.47664011"
     inkscape:cx="191.96874"
     inkscape:cy="379.74144"
     inkscape:window-width="1728"
     inkscape:window-height="1006"
     inkscape:window-x="0"
     inkscape:window-y="38"
     inkscape:window-maximized="1"
     inkscape:current-layer="layer1" /><defs
     id="defs2"><filter
       inkscape:collect="always"
       style="color-interpolation-filters:sRGB"
       id="filter3534"
       x="-0.077286355"
       y="-0.095814166"
       width="1.1545727"
       height="1.1916283"><feGaussianBlur
         inkscape:collect="always"
         stdDeviation="2.2519103"
         id="feGaussianBlur3536" /></filter></defs><g
     inkscape:label="Layer 1"
     inkscape:groupmode="layer"
     id="layer1"
     transform="translate(-29.093918,-31.428655)"><path
       id="path2828"
       style="fill:#e2be9b;fill-opacity:1;stroke-width:0.264583"
       d="m 166.18769,33.678371 c -2.66549,0.07824 -5.33935,1.843603 -9.4511,5.939173 -1.89924,1.891762 -3.80868,3.97436 -4.24263,4.628141 -0.89538,1.348972 -1.5941,1.619997 -2.204,0.854728 -0.23047,-0.289175 -1.04418,-0.727967 -1.80816,-0.975134 -0.76932,-0.248894 -1.38906,-0.609031 -1.38906,-0.807186 0,-0.445704 -0.8888,-0.747115 -1.56735,-0.53175 -0.2835,0.08998 -1.72522,-0.245383 -3.25303,-0.756543 -6.67264,-2.232487 -9.62758,-2.67684 -17.8015,-2.67684 -6.80849,0 -8.06857,0.140719 -13.49375,1.508952 -8.63335,2.177341 -18.162104,6.80541 -22.941234,11.142473 -2.178283,1.976789 -6.295223,6.623128 -6.295223,7.104475 0,0.152046 -0.386954,0.762198 -0.859896,1.35599 -0.472939,0.593795 -1.276618,1.748261 -1.785937,2.565735 -1.45241,2.331159 -1.9953,2.913 -2.717664,2.913 -1.064613,0 -7.5165,2.300284 -10.379211,3.70055 -1.455205,0.711796 -3.064972,1.68862 -3.577043,2.17041 -1.713066,1.611754 -3.825247,4.077091 -4.430737,5.17126 l -0.599447,1.083139 1.344104,0.446484 c 1.723636,0.572499 1.525583,0.820628 -0.237195,0.297139 l -1.334285,-0.396358 -0.313676,0.973584 c -0.172408,0.535509 -0.403778,1.09265 -0.514181,1.238167 -0.60935,0.803188 -1.388745,5.191034 -1.386478,7.805204 0.0073,8.423 3.76755,17.305796 10.731644,25.351946 1.047706,1.21046 2.738235,3.41571 3.756877,4.90047 3.308367,4.82222 4.920119,6.87518 7.511169,9.56738 1.400533,1.45517 3.081282,3.27463 3.735173,4.04316 0.653888,0.76854 1.841888,1.8401 2.639632,2.38125 0.797747,0.54116 2.068998,1.47929 2.825151,2.08463 0.756146,0.60535 1.621389,1.17865 1.92288,1.27434 0.56514,0.17937 0.76314,0.66766 0.270784,0.66766 -0.152511,0 -0.945638,-0.44649 -1.762683,-0.99219 -0.817048,-0.54571 -1.9725,-1.31718 -2.567285,-1.71462 -1.882278,-1.25773 -2.16406,-0.98219 -1.760616,1.72082 1.175265,7.87405 3.449735,19.90261 4.414201,23.34328 0.367119,1.30968 0.784154,2.79796 0.926558,3.30729 0.142402,0.50932 0.613365,2.09305 1.046448,3.51917 0.433082,1.42612 0.965686,3.45018 1.18339,4.49791 0.971525,4.67565 3.370635,10.50987 6.024955,14.65079 0.636741,0.99335 1.903016,3.25593 2.813782,5.02812 1.227948,2.38933 1.758093,3.18322 2.051553,3.07061 0.21767,-0.0835 0.50133,0.0139 0.62994,0.21704 0.32014,0.50559 0.30333,1.36476 -0.0227,1.16324 -0.15437,-0.0954 -0.26459,0.17375 -0.26459,0.64595 0,0.51318 -0.13404,0.80925 -0.36638,0.80925 -0.47679,0 -1.09628,0.96135 -1.453661,2.25568 -0.227849,0.8252 -0.206489,1.15014 0.108521,1.63091 0.536722,0.81914 1.82841,1.44372 3.26233,1.57768 l 1.19476,0.11162 -0.51314,-0.56689 c -0.4107,-0.45382 -0.51263,-0.95841 -0.51263,-2.53266 0,-2.10357 0.206,-2.4643 1.41231,-2.4722 0.57283,-0.004 0.60534,0.0723 0.4439,1.02784 -0.12991,0.76894 -0.0249,1.37767 0.41083,2.39055 0.83987,1.95233 1.52017,2.39856 3.65559,2.39676 2.00795,-0.002 3.73466,-0.40516 3.73466,-0.87282 0,-0.17622 0.2977,-0.87937 0.66145,-1.56269 0.56198,-1.05567 0.61474,-1.34377 0.35347,-1.9172 -0.73117,-1.60475 0.82825,-0.91533 1.62833,0.71985 0.30165,0.61653 0.73636,1.46177 0.96583,1.87844 0.33273,0.60419 0.3562,0.89173 0.11524,1.42059 -0.25548,0.56072 -0.24004,0.63959 0.10025,0.50901 0.22135,-0.0849 0.37415,-0.0252 0.33951,0.13333 -0.0346,0.15847 0.10446,0.34931 0.30954,0.42374 0.27717,0.10058 0.31981,0.007 0.16485,-0.3638 -0.3879,-0.92869 -0.46636,-1.67889 -0.27905,-2.67736 l 0.18655,-0.99477 0.5054,0.62374 c 0.27773,0.34298 0.50488,0.83445 0.50488,1.09244 0,0.46656 1.89788,2.3828 2.36006,2.3828 0.1332,0 0.41123,0.065 0.61753,0.14418 0.30427,0.11675 0.35214,-0.13276 0.25373,-1.3193 -0.21155,-2.55104 0.67484,-4.9103 1.84485,-4.9103 0.77796,0 0.84319,0.62097 0.36536,3.48919 -0.26669,1.60075 -0.34911,2.76749 -0.20516,2.91145 0.13214,0.13214 1.70098,0.3122 3.48609,0.39998 l 3.2458,0.15968 -0.34468,-0.63614 c -0.55219,-1.01912 -0.51303,-3.21343 0.0646,-3.62717 0.26547,-0.19015 0.48211,-0.6664 0.48163,-1.05833 -7.9e-4,-0.56717 0.7212,-1.4146 3.53622,-4.1522 1.94525,-1.89178 3.69378,-3.73723 3.88555,-4.10104 0.81287,-1.54212 1.6936,-8.53287 1.50843,-11.9724 -0.10688,-1.98531 0.0985,-2.67595 0.43254,-1.45521 0.33755,1.23344 0.4556,6.00533 0.22634,9.14777 -0.13084,1.7934 -0.16451,3.69843 -0.0744,4.23333 0.15842,0.94127 0.0911,1.04486 -2.09703,3.22151 -1.24342,1.23693 -2.47539,2.63591 -2.7373,3.10885 l -0.47594,0.8599 h 1.33791 c 1.1577,0 1.3379,0.0705 1.3379,0.52451 0,0.36288 -0.40237,0.72893 -1.30431,1.18598 -0.71731,0.36348 -1.37576,0.77691 -1.46348,0.9188 -0.0877,0.14193 -0.31031,0.20041 -0.49454,0.12971 -0.18422,-0.0707 -0.61674,0.1713 -0.96119,0.53795 -0.52287,0.55662 -0.57974,0.76909 -0.34364,1.28726 0.46752,1.0261 5.8105,2.55165 8.95656,2.55747 0.95025,0.002 1.27237,-0.17697 2.64583,-1.46916 2.32307,-2.18561 2.69347,-2.40751 3.19102,-1.90996 0.36336,0.36336 0.36191,0.48786 -0.0145,1.21543 -0.23054,0.44582 -0.68447,0.99659 -1.00872,1.2237 l -0.58963,0.41289 0.65422,0.001 c 0.62363,0.001 0.61311,0.0259 -0.21911,0.53331 -1.48659,0.90632 -0.84846,1.14769 2.56625,0.97151 3.74328,-0.19313 6.58223,-0.57947 9.55188,-1.30018 1.70879,-0.41472 3.00369,-0.53521 5.39192,-0.50229 1.72866,0.0238 3.23763,0.10164 3.35328,0.17311 0.11565,0.0715 4.17831,0.13366 9.02787,0.1385 15.19171,0.0152 24.85288,-1.3585 35.54047,-5.05447 2.18281,-0.75486 4.56409,-1.67261 5.29166,-2.03916 1.50022,-0.75578 4.28748,-2.68807 4.97696,-3.44991 0.41011,-0.45314 0.41682,-0.54426 0.0568,-0.84285 -0.22194,-0.1842 -0.4036,-0.56064 -0.4036,-0.83664 0,-0.38664 0.13664,-0.46901 0.59532,-0.35812 0.74463,0.18002 3.268,-1.51345 4.03489,-2.70784 0.59809,-0.93149 1.60465,-1.52972 1.865,-1.10846 0.0905,0.14641 0.0103,0.46899 -0.1788,0.71727 -3.12166,4.1017 -7.27702,7.62108 -11.8277,10.06398 1.41107,0.0576 2.72939,-0.37135 4.00906,-0.90227 -0.0763,-0.084 -0.11975,-0.16093 -0.078,-0.2005 0.61582,-0.58462 5.46376,-3.19182 6.72362,-3.6158 0.88173,-0.29672 2.43648,-1.02337 3.45508,-1.61489 1.01865,-0.59152 1.61448,-0.99449 1.32344,-0.89555 -1.43399,0.48749 -4.36651,0.60685 -4.36563,0.17776 1.8e-4,-0.099 0.6986,-0.38489 1.55185,-0.63562 2.99039,-0.87871 5.89647,-3.68344 7.81451,-7.54269 1.28536,-2.58637 1.33329,-2.84578 0.68988,-3.71605 -0.48654,-0.65808 -0.51558,-0.85068 -0.23203,-1.53066 l 0.32401,-0.77773 0.0982,0.66146 c 0.0539,0.3638 0.16052,0.84005 0.23667,1.05833 0.25016,0.71705 0.87409,-0.83016 0.88419,-2.19211 0.005,-0.7049 0.19875,-1.55514 0.43666,-1.91823 0.48771,-0.74434 0.12337,-0.88792 -0.48007,-0.18913 -0.21989,0.25466 -0.83049,1.27147 -1.35651,2.25929 -1.77906,3.34088 -4.64623,6.68401 -5.95467,6.94376 -0.81246,0.16128 -0.8748,0.12649 -0.79375,-0.44338 0.0523,-0.36787 0.30276,-0.65825 0.61753,-0.71675 0.29105,-0.0541 0.62415,-0.26355 0.74052,-0.46561 0.11636,-0.20206 0.36442,-0.36742 0.55088,-0.36742 0.34971,0 0.74127,-0.62592 1.22369,-1.95492 0.15261,-0.42036 0.35302,-0.68928 0.44494,-0.59738 0.0919,0.0919 0.61754,-0.5762 1.1684,-1.48466 0.55083,-0.90846 1.09827,-1.77064 1.21646,-1.91616 0.41828,-0.515 0.87282,-1.7533 0.87282,-2.37815 0,-0.34828 0.28524,-1.44355 0.63407,-2.43448 2.48698,-7.06527 3.35175,-12.77839 3.1967,-21.11654 -0.0379,-2.0373 -0.19322,-4.7162 -0.3452,-5.95313 -0.15196,-1.23689 -0.41132,-3.67774 -0.57619,-5.42395 -0.50038,-5.30059 -1.40923,-9.62199 -2.78226,-13.22917 -3.27291,-8.59849 -4.97151,-11.98782 -8.81031,-17.57929 -2.32762,-3.39033 -7.80614,-9.646346 -11.71763,-13.380576 -2.70388,-2.58131 -6.61359,-5.75334 -10.15856,-8.24187 -1.45517,-1.02154 -3.62947,-2.56081 -4.83123,-3.42046 -2.39408,-1.712673 -6.87091,-4.283755 -10.38231,-5.962432 -1.23692,-0.591329 -2.5694,-1.245053 -2.96106,-1.452624 l -0.7121,-0.377238 -0.0816,1.109493 c -0.0449,0.610343 -0.20181,1.148812 -0.3483,1.196826 -0.14649,0.04801 -0.96956,-1.279359 -1.82934,-2.949691 -1.34437,-2.611756 -1.77903,-3.209927 -3.10524,-4.273641 -1.08073,-0.866813 -1.89081,-1.838333 -2.70681,-3.247347 -1.83255,-3.164308 -2.54275,-4.610035 -2.54713,-5.183663 -0.006,-0.827932 -0.25157,-1.035527 -2.44326,-2.068607 -1.12779,-0.531588 -2.05052,-1.087948 -2.05052,-1.2361 0,-0.405781 -0.68415,-0.323216 -1.05834,0.12764 -0.3766,0.453782 -0.7578,0.495318 -1.31465,0.143144 -0.31139,-0.19694 -0.0437,-0.602904 1.34979,-2.046387 0.95615,-0.990427 1.99446,-2.277173 2.30736,-2.859257 0.31291,-0.582079 0.77123,-1.355993 1.01854,-1.719791 0.2473,-0.363802 -0.0349,-0.125673 -0.62735,0.529166 -1.64997,1.823476 -3.72561,3.132012 -5.48442,3.457154 -1.13913,0.210579 -1.6152,0.202116 -1.8986,-0.03307 -0.58332,-0.484116 -0.4504,-0.963496 0.34985,-1.264522 2.60486,-0.979862 4.38956,-1.83975 5.92522,-2.85409 1.80371,-1.191388 2.17674,-1.651419 1.90738,-2.353345 -0.0849,-0.221166 0.12098,-1.024846 0.45734,-1.785937 0.47739,-1.080219 0.61417,-1.877293 0.62373,-3.632853 0.0108,-1.976492 -0.0799,-2.424041 -0.74621,-3.693315 -0.9816,-1.869754 -2.5381,-3.96833 -3.6158,-4.875154 -1.26607,-1.065356 -2.48305,-0.724683 -4.76095,1.333251 -1.00151,0.904838 -2.28853,3.626377 -2.75487,5.825485 -0.1601,0.755001 -0.12287,0.825462 0.36794,0.697115 0.81298,-0.212601 0.68598,0.4789 -0.2527,1.37821 -0.91511,0.876732 -1.37296,2.292843 -1.3131,4.060217 0.0229,0.675156 0.0172,1.346378 -0.0129,1.491899 -0.0302,0.145521 -0.0411,0.35388 -0.0238,0.463021 0.12302,0.779162 -2.34588,-0.933173 -2.94245,-2.040702 -0.27145,-0.503952 -0.2593,-0.505888 0.41186,-0.06615 0.89206,0.584498 0.97421,0.57252 0.97462,-0.14211 5.3e-4,-0.905633 1.24676,-5.854035 2.02933,-8.058423 1.27997,-3.605451 2.70004,-5.248918 4.69997,-5.439462 0.94232,-0.08978 1.44158,-0.29253 1.79472,-0.728637 0.67703,-0.836092 0.50586,-1.116032 -1.00097,-1.63711 -0.93965,-0.32494 -1.82709,-0.486518 -2.7156,-0.460437 z m 6.19808,0.596863 c -0.21236,-0.0036 -0.37896,0.03376 -0.46664,0.12144 -0.45494,0.454934 -0.0678,1.091199 1.942,3.193087 2.65221,2.773704 3.12901,2.96838 3.12901,1.275891 0,-1.280358 -1.04938,-3.530458 -1.58802,-3.404444 -0.18146,0.04245 -0.52371,-0.09171 -0.76016,-0.298173 -0.56986,-0.497577 -1.61912,-0.876965 -2.25619,-0.887801 z m -75.454313,2.828768 c -0.289947,0 0.08313,1.414752 0.77463,2.936772 0.356997,0.785779 0.833716,1.875337 1.059366,2.421041 0.462973,1.119605 0.650992,1.190534 1.379757,0.520898 0.28211,-0.259212 1.02645,-0.623287 1.65417,-0.809253 0.62771,-0.185965 1.10397,-0.424695 1.05833,-0.5302 -0.0456,-0.105505 -0.87414,-0.923114 -1.84123,-1.816943 -1.512397,-1.397816 -3.499955,-2.722315 -4.085023,-2.722315 z m -0.680062,3.06958 c -0.004,-2.5e-4 -0.0082,1.41e-4 -0.0124,10e-4 -0.117991,0.02496 -0.314143,0.489058 -0.468189,1.131197 -0.212157,0.88436 -0.679309,1.7424 -1.384928,2.544031 -1.208558,1.372993 -2.272965,2.001398 -3.349666,1.965771 0.07834,0.04507 0.15874,0.08314 0.245463,0.103353 0.226704,0.07775 0.434398,0.212639 0.598929,0.386023 0.152531,0.0868 0.27066,0.18238 0.309542,0.283703 0.03271,0.08525 0.02994,0.174652 0.0124,0.264067 0.03954,0.133107 0.05706,0.273792 0.04754,0.418062 -0.0015,0.06441 -0.0078,0.127649 -0.0186,0.19017 1.098966,-0.720517 2.148492,-1.328011 3.247347,-1.880506 1.15298,-0.579707 2.167356,-1.16857 2.254126,-1.308964 0.151421,-0.245004 -1.049083,-3.626426 -1.44849,-4.079854 -0.01,-0.01133 -0.02103,-0.01734 -0.03307,-0.01809 z m 155.446845,83.052288 -1.06712,0.95602 c -1.38684,1.24301 -4.95102,3.01875 -6.85126,3.41323 -1.02886,0.21359 -2.02497,0.23472 -3.18689,0.0677 -0.92956,-0.13367 -1.69033,-0.2254 -1.69033,-0.20412 0,0.0213 0.17299,0.56587 0.38395,1.21026 0.21095,0.64439 0.69431,2.21347 1.07436,3.48713 0.81051,2.71621 0.55383,2.71623 4.03954,0.007 2.31142,-1.79609 5.30736,-5.25631 6.56498,-7.58248 z" /><path
       style="mix-blend-mode:normal;fill:#a67956;fill-opacity:1;fill-rule:evenodd;stroke-width:1;stroke-linecap:square;filter:url(#filter3534);stop-color:#000000"
       d="m 94.156451,64.96292 c -10.101627,-0.06088 -17.619274,1.476352 -26.676407,6.782772 -6.615709,3.705851 -11.194867,10.197209 -9.269627,17.563932 1.398914,3.85266 3.587556,7.37751 5.107065,11.194156 3.022238,6.75388 6.799923,14.17562 14.00922,17.1941 8.533083,3.70622 18.927836,5.02885 27.366168,0.35248 5.1257,-2.41645 11.48612,-2.62315 15.51939,-7.03134 5.53328,-2.94385 9.40555,-13.557926 6.4832,-19.064106 -3.45705,-9.210826 -7.74167,-13.995849 -15.43289,-20.776991 -3.88476,-3.871755 -11.940808,-7.68136 -17.106119,-6.215003 z"
       id="path2978"
       sodipodi:nodetypes="cccccccccc" /><path
       id="path2504"
       style="fill:#ffffff;fill-opacity:1;stroke-width:0.264583"
       d="m 84.047489,108.05109 -1.418001,1.07073 c -0.779973,0.58888 -1.417858,1.14601 -1.417485,1.23765 0.0016,0.38103 1.960462,3.40585 2.720764,4.2013 1.15229,1.20557 1.459124,1.11139 1.471228,-0.45114 0.0056,-0.72101 0.239553,-1.82232 0.520382,-2.44739 l 0.51108,-1.13637 -1.194243,-1.23713 z m 3.382222,2.96364 c -0.04218,-0.001 -0.07536,0.004 -0.09767,0.0181 -0.500655,0.30943 -1.225757,3.11226 -1.122929,4.3403 0.03678,0.43922 2.701857,0.16793 3.7915,-0.38602 0.395865,-0.20125 0.852624,-0.6145 1.014925,-0.91777 0.243528,-0.45503 0.19064,-0.66227 -0.302824,-1.18753 -0.328874,-0.35008 -0.698897,-0.63665 -0.822172,-0.63665 -0.123275,0 -0.690858,-0.30869 -1.261422,-0.68627 -0.427921,-0.28317 -0.863004,-0.48728 -1.114144,-0.53433 v 5.2e-4 c -0.03139,-0.006 -0.05995,-0.01 -0.08527,-0.0103 z" /><path
       style="fill:#000000;stroke-width:0.264583"
       d="m 144.92337,208.41345 c -0.23611,-0.23612 -1.27739,-0.39518 -4.23343,-0.64667 -1.55685,-0.13246 -3.37385,-0.42526 -4.03779,-0.65067 -0.66393,-0.22541 -1.59281,-0.46001 -2.06416,-0.52134 -0.47136,-0.0613 -1.06014,-0.19209 -1.30842,-0.29059 -0.24827,-0.0985 -1.2838,0.0102 -2.30118,0.24163 -2.89465,0.65837 -7.68219,0.55753 -11.52902,-0.24283 -1.74301,-0.36265 -3.54414,-0.65936 -4.0025,-0.65936 -0.45836,0 -0.97625,-0.17214 -1.15087,-0.38254 -0.23307,-0.28083 -0.48825,-0.3176 -0.95988,-0.13829 -0.35332,0.13433 -1.68355,0.37595 -2.95607,0.53693 -2.75993,0.34914 -7.49425,-0.16466 -9.93633,-1.07836 -3.079201,-1.15208 -3.799799,-3.18867 -2.278498,-6.43961 0.771094,-1.64779 0.864913,-2.81688 0.22605,-2.81688 -0.135713,0 -0.248428,-0.20836 -0.250476,-0.46302 -0.0048,-0.59483 -1.972006,-4.22888 -2.75713,-5.09323 -0.712322,-0.78421 -2.153137,-2.88411 -2.995404,-4.36563 -1.670743,-2.93877 -2.964799,-6.49933 -4.423386,-12.17083 -0.523947,-2.03729 -1.357861,-5.01386 -1.853139,-6.61458 -0.495282,-1.60073 -1.440599,-5.94651 -2.100707,-9.6573 -1.64455,-9.24479 -1.736318,-9.78044 -1.874476,-10.94125 -0.06673,-0.56065 -0.315878,-2.34602 -0.553664,-3.96748 -0.405699,-2.76641 -0.394335,-4.39191 0.04525,-6.47352 0.181108,-0.8576 0.083,-0.97776 -4.428897,-5.42395 -4.208151,-4.14687 -7.179498,-7.62173 -10.209779,-11.93986 -0.618665,-0.88159 -1.958449,-2.79352 -2.977304,-4.24873 -1.018852,-1.45521 -2.336765,-3.23225 -2.928699,-3.94899 -1.618385,-1.95962 -3.954944,-6.07527 -4.955122,-8.72804 -1.204828,-3.195556 -2.39471,-8.478216 -2.597576,-11.532336 -0.429141,-6.460694 1.8948,-12.617458 6.49655,-17.211154 2.044925,-2.041345 2.627778,-2.445001 5.970326,-4.134773 2.037291,-1.02992 5.073385,-2.320182 6.746875,-2.867245 4.028289,-1.316847 4.356857,-1.50531 5.185272,-2.974242 0.389364,-0.690414 1.138135,-1.910141 1.663936,-2.710505 0.525801,-0.800365 1.015532,-1.590866 1.088292,-1.75667 0.462132,-1.053094 3.867843,-4.674055 6.244236,-6.638882 3.538683,-2.925829 5.891779,-4.544142 8.552751,-5.882053 1.152983,-0.57971 2.167324,-1.168884 2.254094,-1.309278 0.151421,-0.245007 -1.049155,-3.626393 -1.448562,-4.079824 -0.106502,-0.120908 -0.337685,0.38061 -0.513738,1.114485 -0.212157,0.884363 -0.679112,1.742177 -1.384734,2.543808 -1.698017,1.929048 -3.111056,2.414543 -4.674476,1.606069 -0.843839,-0.436367 -1.779855,-1.410032 -1.092071,-1.135999 1.853391,0.738446 2.305886,0.782267 3.284162,0.318045 1.245063,-0.590821 2.252216,-1.906277 2.457516,-3.209793 0.08808,-0.559231 0.362998,-1.279062 0.610937,-1.599624 0.247938,-0.320562 0.605522,-1.135466 0.794633,-1.810898 0.279802,-0.999359 0.280543,-1.267173 0.004,-1.438099 -0.462269,-0.285704 -0.100711,-0.798371 0.56306,-0.798371 0.963467,0 4.551548,2.074622 6.057418,3.502391 2.22447,2.109097 2.25887,2.130824 2.86218,1.807939 0.78195,-0.418487 7.18202,-2.02712 10.22133,-2.569095 2.06859,-0.368873 4.06009,-0.470928 9.12813,-0.467772 9.3817,0.0058 12.98739,0.660622 21.38798,3.883984 l 4.85151,1.861558 4.27661,-4.367408 c 3.14601,-3.212801 4.80122,-4.687192 6.26099,-5.577021 2.70359,-1.648024 5.14648,-2.407184 7.80521,-2.425566 1.95714,-0.01353 2.21636,0.05061 3.43958,0.851089 1.33731,0.875145 3.97132,3.732717 4.24999,4.610705 0.22642,0.713388 0.48608,0.585735 1.12655,-0.553828 0.75592,-1.344978 1.42077,-1.655398 1.09227,-0.50998 -0.12716,0.443386 -0.4087,0.941619 -0.62565,1.107184 -0.28763,0.219499 -0.43797,1.089274 -0.55512,3.211445 -0.13669,2.476054 -0.0624,3.399217 0.4979,6.185588 0.73801,3.670266 1.0097,4.178528 1.74973,3.273266 0.66457,-0.812958 0.7987,-0.752662 0.7987,0.359037 0,0.750049 0.0871,0.920925 0.40689,0.798211 0.23599,-0.09056 0.47315,0.01651 0.56464,0.254942 0.19157,0.499216 -1.50607,2.318848 -2.57739,2.762602 -0.80093,0.331756 -1.90864,1.823395 -2.18636,2.944138 -0.13222,0.533575 0.0326,1.0234 0.68456,2.034429 2.61031,4.047961 5.33338,8.724037 6.4472,11.071201 1.3619,2.869922 2.8927,4.271933 7.13482,6.534568 9.45413,5.042583 16.90291,9.886486 21.9371,14.265576 3.22776,2.80774 10.81387,10.852416 13.52193,14.339356 2.74839,3.53882 7.98563,12.27304 9.23105,15.3948 l 0.44177,1.1073 0.83805,-0.511 c 0.99023,-0.6038 1.34387,-0.64935 1.1516,-0.14834 -0.0769,0.20055 -0.006,0.4982 0.15689,0.66146 0.2194,0.21937 0.12769,0.29788 -0.35139,0.30087 -1.1476,0.007 -1.41047,0.34407 -1.07101,1.37265 1.2754,3.86448 7.53089,4.08913 11.55116,0.41484 1.60461,-1.46654 2.61956,-3.18911 3.28559,-5.57642 0.23569,-0.84476 0.54179,-1.53823 0.68019,-1.54103 0.13843,-0.003 0.40878,0.50976 0.60079,1.13905 0.46855,1.53546 0.2476,4.71863 -0.45717,6.58699 -1.46876,3.89361 -6.15731,9.07691 -10.27684,11.36127 -1.10093,0.61048 -1.31289,1.05018 -0.95536,1.98185 0.13489,0.35155 0.21437,0.36931 0.39283,0.0878 0.17449,-0.27527 0.22458,-0.25728 0.22775,0.0818 0.003,0.23909 -0.18209,0.50614 -0.4096,0.59344 -0.22749,0.0873 -0.35015,0.26146 -0.27255,0.38701 0.0776,0.12555 0.15582,0.93007 0.17383,1.78781 0.018,0.85774 0.20664,3.52406 0.41918,5.92515 0.43217,4.88297 0.48297,9.63344 0.11851,11.08025 -0.13279,0.52706 -0.30895,2.08939 -0.3915,3.47183 -0.22583,3.78185 -1.48664,10.44757 -2.41401,12.76247 -0.13692,0.34175 -0.003,0.52836 0.52507,0.72894 0.59385,0.22578 0.68529,0.38762 0.56274,0.99586 -0.0805,0.39945 -0.33134,1.82605 -0.55745,3.17021 -0.89371,5.31325 -2.4433,8.48454 -5.78845,11.84645 l -2.14818,2.15894 1.51583,-0.21657 c 1.5762,-0.2252 2.8498,0.0427 2.8498,0.59936 0,0.60738 -2.40999,3.14393 -2.98707,3.14393 -0.47988,0 -0.37253,-0.19532 0.71316,-1.2976 0.70297,-0.71368 1.20155,-1.42147 1.10797,-1.57287 -0.24223,-0.39195 -2.27037,0.26095 -3.37122,1.08527 -0.99258,0.74326 -3.84133,2.2218 -6.04618,3.13807 -0.80036,0.33261 -2.02107,0.9486 -2.71272,1.36887 l -1.25748,0.76413 0.59602,0.51911 0.59606,0.51911 -0.84675,-0.40996 c -1.04963,-0.50818 -1.42794,-0.52031 -1.24357,-0.0399 0.17786,0.46354 -0.24098,0.74154 -0.79622,0.52848 -0.49593,-0.19031 -0.57082,-1.16134 -0.09,-1.16723 0.22398,-0.003 0.2051,-0.0835 -0.0585,-0.2502 -0.21407,-0.13538 -0.33313,-0.29938 -0.26458,-0.36446 0.61582,-0.58462 5.46371,-3.19145 6.72357,-3.61543 0.88173,-0.29672 2.43658,-1.02347 3.45522,-1.61499 1.01865,-0.59152 1.61396,-0.99453 1.32292,-0.89559 -1.43399,0.48749 -4.36613,0.60697 -4.36525,0.17788 1.8e-4,-0.099 0.6985,-0.38517 1.55175,-0.6359 2.99043,-0.87871 5.89619,-3.68352 7.81423,-7.54277 1.2854,-2.58637 1.3335,-2.84538 0.69009,-3.71565 -0.48654,-0.65808 -0.51575,-0.85075 -0.2322,-1.53073 l 0.32438,-0.7779 0.0981,0.66146 c 0.0539,0.3638 0.16031,0.84005 0.23646,1.05833 0.25016,0.71705 0.87448,-0.83017 0.88458,-2.19212 0.005,-0.7049 0.19876,-1.55514 0.43667,-1.91823 0.48771,-0.74434 0.1229,-0.88792 -0.48054,-0.18913 -0.21989,0.25466 -0.8302,1.27124 -1.35622,2.25906 -1.77906,3.34088 -4.64606,6.68435 -5.9545,6.9441 -0.81246,0.16128 -0.8748,0.12647 -0.79375,-0.4434 0.0523,-0.36787 0.30231,-0.65826 0.61708,-0.71676 0.29105,-0.0541 0.62439,-0.26366 0.74076,-0.46572 0.11636,-0.20206 0.36414,-0.36738 0.5506,-0.36738 0.34975,0 0.7417,-0.62593 1.22412,-1.95493 0.15261,-0.42036 0.35263,-0.68911 0.44455,-0.59721 0.0919,0.0919 0.61778,-0.5762 1.16864,-1.48466 0.55083,-0.90846 1.09823,-1.77081 1.21642,-1.91633 0.41828,-0.515 0.87262,-1.75308 0.87262,-2.37793 0,-0.34828 0.28538,-1.44401 0.63421,-2.43494 2.48698,-7.06531 3.35182,-12.7781 3.19677,-21.11629 -0.0379,-2.0373 -0.19322,-4.7162 -0.3452,-5.95313 -0.152,-1.23693 -0.41121,-3.67771 -0.57608,-5.42396 -0.50038,-5.30059 -1.40922,-9.62198 -2.78225,-13.22916 -3.27295,-8.59853 -4.97162,-11.9879 -8.81046,-17.57937 -2.32762,-3.39033 -7.80623,-9.646406 -11.71776,-13.380636 -2.70388,-2.58131 -6.61363,-5.75339 -10.1586,-8.24192 -1.45521,-1.02154 -3.62909,-2.56073 -4.83085,-3.42042 -2.39412,-1.712661 -6.8713,-4.283755 -10.3827,-5.962436 -1.23692,-0.591333 -2.5694,-1.244981 -2.96106,-1.452552 l -0.71211,-0.377401 -0.0816,1.10972 c -0.0449,0.610347 -0.2015,1.149004 -0.34799,1.197018 -0.14649,0.04801 -0.96981,-1.27934 -1.82959,-2.949676 -1.34437,-2.611768 -1.77915,-3.210152 -3.10536,-4.27387 -1.08073,-0.866817 -1.89051,-1.838449 -2.70651,-3.247467 -1.83255,-3.164324 -2.54291,-4.60984 -2.54729,-5.183468 -0.006,-0.827936 -0.25161,-1.035621 -2.44334,-2.068705 -1.12779,-0.531588 -2.05052,-1.087745 -2.05052,-1.235901 0,-0.405781 -0.68415,-0.32336 -1.05834,0.1275 -0.3766,0.453782 -0.75766,0.495261 -1.31451,0.143087 -0.31139,-0.19694 -0.0435,-0.602983 1.34998,-2.04647 0.95615,-0.990431 1.99447,-2.277033 2.30737,-2.859117 0.31291,-0.582083 0.77127,-1.355989 1.01858,-1.719791 0.2473,-0.363802 -0.0352,-0.125677 -0.62769,0.529166 -1.64997,1.82348 -3.72559,3.131767 -5.48444,3.456909 -1.13913,0.210579 -1.61481,0.202348 -1.89821,-0.03285 -0.58332,-0.484116 -0.45081,-0.96371 0.34944,-1.26474 2.60486,-0.979866 4.38993,-1.839613 5.92559,-2.853957 1.80371,-1.191392 2.1765,-1.651392 1.90714,-2.353318 -0.0849,-0.22117 0.12089,-1.024842 0.45725,-1.785937 0.47739,-1.080223 0.61425,-1.877201 0.62381,-3.632769 0.0108,-1.9765 -0.0796,-2.423928 -0.74594,-3.693206 -0.9816,-1.869762 -2.53813,-3.968462 -3.61583,-4.87529 -1.26611,-1.06536 -2.48306,-0.724524 -4.76096,1.333422 -1.00155,0.904838 -2.28862,3.626448 -2.75496,5.825564 -0.1601,0.755005 -0.12312,0.825093 0.36769,0.696746 0.81298,-0.212601 0.6864,0.478951 -0.25228,1.378265 -0.91511,0.876736 -1.37311,2.292686 -1.31325,4.060068 0.0229,0.675156 0.0169,1.346618 -0.0132,1.492139 -0.0302,0.145521 -0.0408,0.35388 -0.0235,0.463021 0.12302,0.779166 -2.34623,-0.933098 -2.9428,-2.040631 -0.27145,-0.503952 -0.2593,-0.505904 0.41186,-0.06615 0.89206,0.584502 0.9747,0.572453 0.97511,-0.142181 5.3e-4,-0.905637 1.24652,-5.854045 2.02909,-8.058441 1.27997,-3.605463 2.70001,-5.248952 4.69994,-5.439496 0.94232,-0.08978 1.4415,-0.292421 1.79464,-0.728532 0.67703,-0.836096 0.50597,-1.115873 -1.00086,-1.636951 -3.75861,-1.299774 -6.6846,0.01774 -12.16694,5.478524 -1.89924,1.89177 -3.80821,3.974499 -4.24216,4.628284 -0.89538,1.348976 -1.59449,1.620073 -2.20439,0.8548 -0.23047,-0.289179 -1.04412,-0.728008 -1.8081,-0.975175 -0.76932,-0.248894 -1.38906,-0.609022 -1.38906,-0.807177 0,-0.445708 -0.88891,-0.747457 -1.56746,-0.532092 -0.2835,0.08998 -1.7251,-0.245237 -3.25291,-0.756401 -6.67268,-2.232495 -9.62756,-2.676823 -17.80151,-2.676823 -6.80852,0 -8.06855,0.140924 -13.49375,1.509165 -8.63339,2.177349 -18.161982,6.805359 -22.941132,11.142438 -2.178291,1.976797 -6.29533,6.622785 -6.29533,7.104136 0,0.152046 -0.386953,0.762281 -0.859895,1.356077 -0.472943,0.593799 -1.276615,1.748481 -1.785938,2.565959 -1.452414,2.331167 -1.995075,2.91285 -2.717443,2.91285 -1.064617,0 -7.516709,2.300455 -10.379432,3.700725 -1.455209,0.7118 -3.064804,1.688375 -3.576879,2.170165 -1.713074,1.611762 -3.82547,4.077089 -4.430964,5.171266 l -0.599506,1.083362 1.344253,0.44649 c 1.723644,0.572503 1.525754,0.820312 -0.237032,0.296823 L 57.1631,78.416074 56.849635,79.389722 c -0.172408,0.535509 -0.403796,1.092713 -0.514199,1.238234 -0.609354,0.803188 -1.388827,5.190998 -1.38656,7.805208 0.0073,8.423 3.767413,17.305786 10.731535,25.351936 1.04771,1.2105 2.738366,3.4157 3.757012,4.90046 3.308379,4.82222 4.920134,6.87519 7.511196,9.56739 1.400537,1.45521 3.081435,3.27463 3.735326,4.04316 0.653892,0.76854 1.841598,1.8401 2.639346,2.38125 0.797751,0.54116 2.069124,1.4792 2.825277,2.08454 0.75615,0.60535 1.621493,1.17892 1.922984,1.27461 0.565144,0.17937 0.763225,0.66748 0.270869,0.66748 -0.152511,0 -0.945787,-0.44648 -1.762836,-0.99218 -0.817052,-0.54571 -1.972191,-1.31736 -2.56698,-1.7148 -1.882286,-1.25773 -2.164371,-0.98205 -1.760927,1.72096 1.175269,7.87409 3.449995,19.90265 4.414465,23.34332 0.367123,1.30968 0.784008,2.79796 0.926412,3.30729 0.142402,0.50932 0.613254,2.09286 1.046337,3.51898 0.433086,1.42612 0.96555,3.45019 1.183254,4.49792 0.971529,4.67565 3.370956,10.51004 6.025288,14.65096 0.636741,0.99335 1.902886,3.25607 2.813656,5.02826 1.227952,2.38937 1.75823,3.18291 2.05169,3.0703 0.21767,-0.0835 0.50098,0.0143 0.62959,0.21742 0.32014,0.50559 0.30341,1.36455 -0.0226,1.16303 -0.15437,-0.0954 -0.26459,0.17364 -0.26459,0.64584 0,0.51318 -0.1341,0.80937 -0.36644,0.80937 -0.47679,0 -1.096339,0.96131 -1.45372,2.25564 -0.227849,0.8252 -0.206163,1.15012 0.108847,1.63089 0.536726,0.81914 1.828513,1.44391 3.262433,1.57787 l 1.1946,0.1116 -0.51296,-0.56682 c -0.4107,-0.45382 -0.51296,-0.95882 -0.51296,-2.53307 0,-2.10357 0.206,-2.46416 1.41231,-2.47206 0.57284,-0.004 0.60569,0.0722 0.44425,1.02774 -0.12991,0.76894 -0.0254,1.37805 0.41038,2.39097 0.83987,1.95233 1.52029,2.3984 3.65572,2.3966 2.00795,-0.002 3.73463,-0.4053 3.73463,-0.87296 0,-0.17622 0.29762,-0.87948 0.66137,-1.5628 0.56199,-1.05567 0.61517,-1.34381 0.3539,-1.91724 -0.73117,-1.60475 0.82813,-0.91525 1.62821,0.71997 0.30165,0.61653 0.73621,1.46188 0.96567,1.87855 0.33273,0.60419 0.35603,0.89187 0.11507,1.42073 -0.25548,0.56072 -0.23999,0.63929 0.10031,0.50871 0.22135,-0.0849 0.37412,-0.0248 0.33948,0.13369 -0.0346,0.15847 0.10483,0.34903 0.30992,0.42346 0.27717,0.10058 0.31937,0.007 0.16441,-0.3638 -0.3879,-0.92869 -0.46596,-1.67875 -0.27865,-2.67722 l 0.18663,-0.99486 0.50497,0.6236 c 0.27773,0.34298 0.50496,0.83468 0.50496,1.09267 0,0.46656 1.89818,2.38272 2.36037,2.38272 0.1332,0 0.41098,0.0648 0.61729,0.14395 0.30426,0.11675 0.35219,-0.1323 0.25379,-1.31888 -0.21156,-2.55104 0.67492,-4.91048 1.84494,-4.91048 0.77796,0 0.8429,0.62071 0.36506,3.48897 -0.26668,1.60075 -0.34878,2.76787 -0.20482,2.91183 0.13214,0.13214 1.70082,0.31208 3.48595,0.39986 l 3.24569,0.1596 -0.34452,-0.63586 c -0.55219,-1.01912 -0.51323,-3.21369 0.0644,-3.62743 0.26547,-0.19015 0.48229,-0.6664 0.48181,-1.05833 -7.9e-4,-0.56717 0.72095,-1.41458 3.53597,-4.15218 1.94525,-1.89178 3.69373,-3.73724 3.8855,-4.10105 0.81287,-1.54212 1.69372,-8.53286 1.50855,-11.97239 -0.10688,-1.98531 0.0984,-2.67599 0.43247,-1.45521 0.33755,1.23344 0.45564,6.00533 0.22638,9.14777 -0.13084,1.79344 -0.16423,3.69844 -0.0742,4.23334 0.15842,0.94127 0.091,1.04484 -2.09716,3.22149 -1.24346,1.23693 -2.47512,2.63592 -2.73703,3.10886 l -0.47618,0.85989 h 1.33787 c 1.1577,0 1.33788,0.0707 1.33788,0.52471 0,0.36288 -0.40225,0.72855 -1.30419,1.1856 -0.71731,0.36348 -1.37597,0.77701 -1.46369,0.91894 -0.0877,0.14193 -0.31021,0.20022 -0.49444,0.12952 -0.18422,-0.0707 -0.61678,0.17146 -0.96123,0.53811 -0.52291,0.55662 -0.57961,0.76907 -0.34351,1.28724 0.46752,1.0261 5.8103,2.55182 8.95636,2.55764 0.95029,0.002 1.27237,-0.17711 2.64583,-1.4693 2.32307,-2.18561 2.69345,-2.40727 3.191,-1.90972 0.36336,0.36336 0.36189,0.48782 -0.0144,1.21539 -0.23054,0.44582 -0.68446,0.99641 -1.00871,1.22352 l -0.58955,0.41294 0.65418,0.001 c 0.62363,0.001 0.61341,0.0258 -0.21881,0.53324 -1.48659,0.90636 -0.84875,1.14791 2.566,0.97173 3.74328,-0.19313 6.58214,-0.57959 9.55179,-1.3003 1.70883,-0.41472 3.00382,-0.5354 5.39205,-0.50248 1.7287,0.0238 3.23772,0.10181 3.35337,0.17328 0.11565,0.0715 4.17814,0.13392 9.02774,0.13876 15.19175,0.0152 24.85275,-1.35893 35.54038,-5.05494 2.18281,-0.75486 4.56406,-1.67238 5.29167,-2.03893 1.50022,-0.75578 4.28783,-2.68783 4.97731,-3.44971 0.41011,-0.45314 0.41622,-0.5446 0.0564,-0.84319 -0.22194,-0.1842 -0.40355,-0.56073 -0.40355,-0.83673 0,-0.38664 0.13664,-0.46878 0.59532,-0.35789 0.74467,0.18002 3.268,-1.5133 4.03489,-2.70769 0.59809,-0.93149 1.60507,-1.53 1.86542,-1.10874 0.0905,0.14641 0.01,0.46934 -0.17907,0.71762 -3.30105,4.33739 -7.75171,8.03897 -12.61033,10.4879 -2.30264,1.16062 -10.58588,3.9311 -14.21143,4.75326 -2.75012,0.62365 -8.26524,1.39446 -11.64167,1.62709 -0.87313,0.0602 -2.24234,0.1738 -3.04271,0.25254 -1.5136,0.14891 -7.11952,0.47121 -8.73125,0.50199 -0.9383,0.0179 -15.24241,-0.40545 -16.918,-0.50073 -0.50088,-0.0285 -1.45338,0.11352 -2.11666,0.31556 -2.10536,0.64132 -6.38298,1.12793 -9.95926,1.13294 -1.9039,0.003 -3.5249,-0.0584 -3.60223,-0.13575 z m 99.47716,-76.25001 c 2.31142,-1.79609 5.30738,-5.25643 6.565,-7.5826 l 0.7325,-1.35493 -1.06686,0.95621 c -1.38684,1.24301 -4.95125,3.01866 -6.85149,3.41314 -1.02886,0.21359 -2.02477,0.23474 -3.18669,0.0677 -0.92956,-0.13367 -1.69013,-0.22562 -1.69013,-0.20434 0,0.0213 0.17258,0.5659 0.38354,1.21029 0.21095,0.64439 0.69447,2.21369 1.07452,3.48735 0.81053,2.71623 0.55388,2.71577 4.03961,0.007 z M 182.03968,68.417899 c -0.86817,-1.382771 -1.0851,-1.390491 -0.38605,-0.01373 0.52126,1.026599 0.9298,1.559581 1.08019,1.409197 0.0615,-0.06149 -0.25087,-0.689448 -0.69414,-1.395455 z M 100.14515,42.982745 c 0.2821,-0.259212 1.0265,-0.623447 1.65422,-0.809413 0.62772,-0.185965 1.10397,-0.424441 1.05833,-0.529946 -0.0456,-0.105505 -0.87424,-0.923144 -1.84133,-1.816975 -1.512401,-1.397818 -3.499938,-2.722373 -4.085008,-2.722373 -0.289947,0 0.08334,1.41491 0.774835,2.936932 0.356999,0.785781 0.833718,1.875177 1.05937,2.420881 0.462973,1.119609 0.650812,1.190532 1.379583,0.520894 z m 76.8452,-4.117301 c 0,-1.28036 -1.04974,-3.530027 -1.58838,-3.404013 -0.18146,0.04245 -0.52339,-0.09173 -0.75984,-0.298192 -0.75981,-0.663439 -2.37225,-1.117481 -2.72297,-0.766756 -0.45494,0.454936 -0.0679,1.091359 1.9419,3.193251 2.65221,2.77371 3.12929,2.968203 3.12929,1.27571 z m 63.54753,166.844316 c 0.10247,-0.54967 1.70135,-1.41206 2.23691,-1.20654 0.48321,0.18543 0.0466,0.75134 -0.99525,1.29014 -0.97409,0.50371 -1.34649,0.47864 -1.24166,-0.0836 z M 90.129985,204.68464 c -0.103153,-0.10315 -0.18755,-0.29468 -0.18755,-0.42561 0,-0.32293 1.32438,-0.13909 1.397288,0.19396 0.06826,0.31182 -0.937064,0.50432 -1.209738,0.23165 z m 150.624955,-0.56967 c 0,-0.9574 -1.07278,-1.92774 -2.31553,-2.09442 -1.16046,-0.15566 -1.43555,-0.43412 -0.70554,-0.71425 0.86352,-0.33137 1.62957,-0.13673 2.4919,0.63315 0.48898,0.43656 0.79351,0.79375 0.67673,0.79375 -0.11679,0 -0.0855,0.15288 0.0696,0.33974 0.29639,0.35714 0.27892,1.10444 -0.0331,1.41649 -0.10123,0.10123 -0.18404,-0.0673 -0.18404,-0.37446 z m -125.12703,-3.38819 c 0.0127,-0.30823 0.0754,-0.37092 0.15985,-0.15986 0.0764,0.191 0.067,0.41921 -0.0209,0.50712 -0.0879,0.0879 -0.15045,-0.0684 -0.13896,-0.34726 z m 100.96247,0.0434 c -0.0965,-0.25146 0.24279,-0.55735 1.02714,-0.92604 1.52516,-0.71691 1.69952,-0.69682 1.46794,0.16913 -0.2583,0.96579 -2.19005,1.55181 -2.49508,0.75691 z m 11.64096,-1.38839 c -0.097,-0.097 -0.1764,-0.4542 -0.1764,-0.79375 0,-0.50681 0.13933,-0.61736 0.77814,-0.61736 1.04479,0 1.29855,0.50118 0.55755,1.10118 -0.64605,0.52316 -0.88278,0.58645 -1.15929,0.30993 z m 8.29027,-1.64001 c 0,-0.40512 1.08518,-1.62318 1.4461,-1.62318 0.30451,0 0.80696,0.76542 0.61063,0.93026 -0.17658,0.14829 -1.78043,0.92182 -1.91129,0.92182 -0.08,0 -0.14544,-0.103 -0.14544,-0.2289 z m 8.46666,-0.0264 c 0,-0.34737 1.00949,-0.86447 1.31683,-0.67453 0.13616,0.0841 0.1805,0.32778 0.0985,0.5414 -0.16354,0.42621 -1.41534,0.54395 -1.41534,0.13313 z m 2.82602,-0.10789 c -0.46533,-0.37062 -0.46533,-0.3883 0,-0.53309 0.8732,-0.2717 3.54213,-0.24976 3.82333,0.0314 0.40479,0.40479 -0.0251,0.58276 -1.79819,0.74431 -1.12209,0.10224 -1.67534,0.0359 -2.02514,-0.24266 z m -4.94268,-0.40015 c 0,-0.44081 1.35284,-1.12104 2.06578,-1.03872 0.70872,0.0818 0.70723,0.0853 -0.29498,0.67756 -1.04516,0.61769 -1.7708,0.76569 -1.7708,0.36116 z M 84.502901,196.27067 c -0.495359,-0.36372 -0.487151,-0.3872 0.231237,-0.66145 0.906823,-0.3462 1.253088,-0.35132 1.767425,-0.0262 0.339344,0.21453 0.320535,0.3068 -0.132292,0.64899 -0.668565,0.50522 -1.215493,0.51654 -1.86637,0.0386 z m 29.498389,-1.79008 c -0.01,-0.045 -0.0592,-0.38815 -0.10926,-0.76261 -0.0501,-0.37447 -0.41372,-1.44603 -0.80812,-2.38125 -0.3944,-0.93522 -0.89117,-2.29572 -1.10392,-3.02332 -0.21275,-0.72761 -0.53818,-1.56104 -0.72317,-1.85208 -0.18498,-0.29105 -0.72542,-1.42214 -1.20097,-2.51355 -0.47555,-1.0914 -1.3898,-2.74022 -2.03168,-3.66403 -0.93249,-1.34208 -2.35648,-3.81623 -2.95449,-5.13336 -0.0496,-0.10914 0.089,-0.19844 0.30781,-0.19844 0.22381,0 0.47154,0.33527 0.56621,0.76632 0.0926,0.42147 0.39969,0.9757 0.68248,1.23163 0.2828,0.25592 0.51417,0.61242 0.51417,0.79223 0,0.1798 0.73343,1.44127 1.62984,2.80326 1.93374,2.9381 5.7785,11.73263 5.7785,13.21778 0,0.38182 -0.48152,1.01289 -0.5474,0.71742 z m -21.942188,-1.65365 c 0,-0.20969 0.124277,-0.45807 0.276172,-0.55194 0.341619,-0.21114 1.095071,0.37637 0.895924,0.6986 -0.236956,0.3834 -1.172096,0.26639 -1.172096,-0.14666 z m 22.971328,-9.60676 c -0.52171,-0.5457 -1.23048,-1.42358 -1.57505,-1.95083 -1.35318,-2.07062 -3.07113,-4.17179 -5.27337,-6.44969 -3.45279,-3.57143 -7.99121,-9.35708 -9.09966,-11.60041 -0.533744,-1.08022 -1.265351,-2.24108 -1.625798,-2.5797 l -0.655355,-0.61568 -0.15217,0.5819 c -0.08369,0.32004 -0.257696,0.51668 -0.386672,0.43697 -0.322186,-0.19913 -0.297757,-2.49496 0.02655,-2.49496 0.58152,0 2.376255,1.52848 3.106732,2.64584 0.428109,0.65484 1.353313,2.08359 2.056013,3.175 1.73425,2.69359 6.32282,8.82704 7.81865,10.45104 1.66752,1.81041 4.14937,4.97732 5.33876,6.81244 0.54253,0.83706 1.07944,1.52193 1.19313,1.52193 0.11369,0 0.35542,0.23813 0.53718,0.52917 0.58037,0.92932 -0.26304,0.63098 -1.30894,-0.46302 z m 3.44545,-1.71979 c -3.17868,-3.48211 -4.81592,-5.48333 -4.63448,-5.66477 0.0792,-0.0791 0.3841,0.0244 0.67767,0.22998 0.82642,0.57884 7.17337,7.65432 7.17337,7.99675 0,0.63066 -1.10712,-0.25114 -3.21656,-2.56196 z m -25.409486,-2.77813 c -0.619662,-0.72155 -0.799015,-1.12448 -0.500536,-1.12448 0.150374,0 0.458113,0.35719 0.683869,0.79375 0.464042,0.89736 0.400981,1.01113 -0.183333,0.33073 z m 4.135851,-9.87366 c -0.58374,-0.64503 -1.532575,-2.15806 -2.086912,-3.32784 -0.378733,-0.79921 -0.973008,-3.79798 -0.752658,-3.79798 0.05874,0 0.409292,0.68461 0.779008,1.52136 0.650851,1.47301 2.033333,3.9301 3.051789,5.42396 0.485021,0.71142 0.485021,0.7276 -2.7e-5,0.7276 -0.272843,0 -0.718883,-0.2462 -0.9912,-0.5471 z m -3.203089,-2.7157 c -1.234847,-0.66644 -2.525527,-2.96321 -3.409577,-6.06735 -0.356928,-1.25328 -0.484976,-2.11593 -0.328435,-2.21268 0.413129,-0.25532 0.654791,0.17749 1.274406,2.28241 0.665278,2.26005 1.791806,4.60752 2.643042,5.5076 0.686144,0.72552 0.615312,0.91895 -0.179436,0.49002 z m -1.940054,-5.99762 c 0,-0.14552 0.119062,-0.26458 0.264583,-0.26458 0.145521,0 0.264583,0.11906 0.264583,0.26458 0,0.14552 -0.119062,0.26459 -0.264583,0.26459 -0.145521,0 -0.264583,-0.11907 -0.264583,-0.26459 z m 48.418748,-19.0567 c 0,-0.43133 1.37105,-0.97156 5.00817,-1.97334 5.33143,-1.46844 7.73353,-2.37686 11.58666,-4.38181 5.20709,-2.70947 10.44815,-6.28097 14.82452,-10.10211 4.09982,-3.57968 7.94496,-8.73037 10.52264,-14.09541 2.56821,-5.34535 2.86079,-6.12725 2.36405,-6.31787 -0.57051,-0.21892 -0.47078,-0.75641 0.10636,-0.57323 0.40621,0.12892 0.5919,-0.11914 1.06933,-1.42856 0.31778,-0.87152 0.69188,-1.65511 0.83136,-1.7413 0.56731,-0.35062 0.17861,1.30699 -1.16625,4.97349 -3.60286,9.82255 -9.50341,17.24963 -19.28938,24.27973 -7.24974,5.20811 -12.03422,7.55242 -19.734,9.66931 -2.39848,0.65941 -4.75746,1.36463 -5.24216,1.56716 -0.48472,0.20252 -0.8813,0.25829 -0.8813,0.12394 z m -43.457811,-1.23401 c -0.254661,-0.0666 -0.46302,-0.23134 -0.46302,-0.36619 0,-0.35522 0.353697,-0.3014 0.941617,0.14328 0.514655,0.38926 0.386464,0.44897 -0.478597,0.22291 z M 82.137226,122.56445 c -0.26339,-0.29104 -0.395925,-0.52917 -0.294526,-0.52917 0.101399,0 0.439957,0.23813 0.752354,0.52917 0.312398,0.29104 0.444933,0.52917 0.294528,0.52917 -0.150407,0 -0.488965,-0.23813 -0.752356,-0.52917 z m 4.973964,0.23653 c -1.357916,-0.3927 -1.307738,-0.76527 0.10365,-0.7696 1.56028,-0.005 2.567646,-0.47823 2.679851,-1.25949 0.103878,-0.72329 0.730607,-0.77672 0.91336,-0.0779 0.08165,0.31223 -0.08637,0.71686 -0.432162,1.04076 -0.554813,0.51969 -2.024671,1.37718 -2.285537,1.33334 -0.07276,-0.0122 -0.513385,-0.13244 -0.979162,-0.26714 z m -1.893372,-6.45237 c -1.405345,-0.43841 -2.117056,-1.07766 -3.68423,-3.30916 -0.664295,-0.94588 -1.292567,-1.81922 -1.396162,-1.94074 -0.103595,-0.12153 -0.566385,-0.0255 -1.028419,0.21346 -0.922973,0.47729 -2.692366,0.45288 -2.853926,-0.0394 -0.05622,-0.17129 0.418275,-0.54167 1.054428,-0.82308 1.142447,-0.50535 4.960009,-3.38996 4.960009,-3.74786 0,-0.10161 -0.299937,-0.46653 -0.666528,-0.81092 -1.717815,-1.61381 -3.261172,-5.12775 -3.792738,-8.635386 -0.611376,-4.03429 -0.660411,-6.84716 -0.165217,-9.47792 0.260832,-1.38569 0.574606,-2.51943 0.697278,-2.51943 0.122671,0 0.223038,-0.28709 0.223038,-0.63797 0,-0.43676 -0.573323,-1.208681 -1.817735,-2.447399 -1.678252,-1.670579 -1.831467,-1.917864 -1.996696,-3.222673 -0.17925,-1.415523 0.07608,-2.158624 0.741703,-2.158624 0.297953,0 1.220645,1.833023 1.220645,2.424938 0,0.16755 0.496753,1.383025 1.103892,2.701049 l 1.103895,2.396409 -0.345483,2.12578 c -1.002556,6.1688 -0.537517,11.56075 1.324317,15.354946 1.217998,2.48214 1.622951,2.99632 3.088346,3.92138 0.600273,0.37894 1.159843,0.90461 1.243491,1.16815 0.166937,0.52597 4.274352,3.35258 6.372167,4.38515 1.502828,0.73971 6.882276,2.3817 9.260417,2.8266 2.25389,0.42165 6.81919,0.53816 8.99583,0.22958 2.63856,-0.37407 6.29881,-1.69076 8.53703,-3.071 2.31703,-1.42884 5.73258,-4.9773 6.876,-7.14357 1.84728,-3.49978 2.42218,-8.225006 1.42497,-11.712066 -1.16772,-4.08329 -3.5414,-8.52577 -6.18483,-11.575228 -0.85015,-0.980737 -2.88052,-3.140462 -4.51195,-4.799383 l -2.96622,-3.016226 2.00227,1.604724 c 3.94633,3.162808 7.91837,8.102211 10.15633,12.629813 2.10854,4.26577 2.61782,6.39903 2.43187,10.18645 -0.16801,3.422086 -0.68135,5.640056 -1.71313,7.401906 -0.97497,1.66484 -3.06353,4.3991 -4.497,5.88731 -0.66258,0.68787 -1.12232,1.33304 -1.02165,1.43371 0.10067,0.10066 1.10226,-0.28354 2.22576,-0.8538 1.1235,-0.57026 2.10552,-1.03866 2.18226,-1.04089 0.0768,-0.002 0.29982,-0.10562 0.49571,-0.22977 0.25709,-0.16293 0.33069,-0.0948 0.26458,0.2451 -0.15637,0.8039 -3.09941,2.21459 -5.15994,2.47332 -1.01149,0.12701 -2.3611,0.48314 -2.99912,0.79139 -0.63802,0.30826 -1.36877,0.56047 -1.62389,0.56047 -0.25512,0 -0.53864,0.12101 -0.63005,0.2689 -0.0914,0.1479 -0.26318,0.20896 -0.38172,0.13569 -0.11855,-0.0733 -0.79493,0.0416 -1.50307,0.2553 -2.03597,0.61433 -6.58538,1.00842 -9.32528,0.8078 -2.51532,-0.18418 -7.147264,-1.18975 -8.670996,-1.88243 -1.086964,-0.49412 -1.04225,-0.50362 -1.881974,0.39961 -0.979768,1.05386 -4.136176,2.66527 -5.177618,2.64327 -0.460856,-0.01 -1.356656,-0.17953 -1.990664,-0.37731 z m 4.782921,-1.36123 c 0.395867,-0.20125 0.852553,-0.61403 1.014854,-0.9173 0.243528,-0.45503 0.190603,-0.66262 -0.302861,-1.18788 -0.328874,-0.35008 -0.698814,-0.6365 -0.822089,-0.6365 -0.123275,0 -0.690962,-0.30893 -1.261526,-0.68651 -0.570563,-0.37758 -1.154221,-0.61431 -1.297014,-0.52606 -0.500655,0.30943 -1.225949,3.11242 -1.123121,4.34046 0.03678,0.43922 2.702112,0.16774 3.791757,-0.38621 z m -4.596861,-0.8776 c 0.0056,-0.72101 0.239924,-1.82233 0.520753,-2.4474 l 0.510601,-1.13647 -1.193887,-1.23735 -1.193888,-1.23735 -1.418137,1.0707 c -0.779973,0.58888 -1.417828,1.14569 -1.417455,1.23735 0.0016,0.38103 1.960504,3.40609 2.720808,4.20154 1.152292,1.20557 1.459101,1.11151 1.471205,-0.45102 z m 6.897759,-0.9022 c -0.06063,-0.053 -0.4079,-0.23821 -0.771702,-0.41147 -0.623694,-0.29703 -0.632137,-0.29153 -0.147868,0.0965 0.421482,0.33768 1.282663,0.63269 0.91957,0.31502 z m 131.028533,-0.60293 c -0.40897,-0.84179 -0.5112,-1.31423 -0.32472,-1.5007 0.18645,-0.18647 0.43923,0.0962 0.80293,0.89783 0.94906,2.09193 0.51257,2.6422 -0.47821,0.60287 z M 72.744518,111.20453 c -3.529724,-1.07758 -6.526462,-4.50907 -8.33323,-9.54216 -1.335508,-3.720306 -1.197681,-10.502026 0.279093,-13.732476 0.85329,-1.86657 1.085443,-1.58715 0.391877,0.47168 -2.262179,6.71517 -0.571838,15.083106 3.965766,19.632286 1.057196,1.05989 2.327341,2.02063 3.24584,2.45514 1.858766,0.87934 2.066234,1.20875 0.450654,0.71553 z M 31.60311,108.54364 c -0.09065,-0.14668 -0.09976,-0.37196 -0.02024,-0.50064 0.21581,-0.34918 7.857594,-4.05412 8.0223,-3.88942 0.295772,0.29577 -0.59861,0.97453 -3.517736,2.66964 -3.04835,1.77016 -4.184254,2.20595 -4.484328,1.72042 z m 186.24626,-2.29425 c -0.25205,-0.41281 -0.85687,-1.37381 -1.34405,-2.13556 -0.48719,-0.76174 -0.88046,-1.53565 -0.87394,-1.71979 0.0227,-0.64134 2.38567,2.31839 2.65851,3.32993 0.34485,1.27849 0.15646,1.50317 -0.44052,0.52542 z M 37.616428,100.13946 c -0.179342,-0.0598 -0.326078,-0.258516 -0.326078,-0.441636 0,-0.38941 1.584251,-0.90774 3.449767,-1.12869 1.079919,-0.1279 1.312733,-0.0822 1.312733,0.25774 0,0.57324 -3.525361,1.616276 -4.436422,1.312586 z M 184.56403,97.476934 c -0.50005,-0.79638 -2.22707,-5.47899 -2.09785,-5.68807 0.0771,-0.12472 0.23923,-0.1271 0.36033,-0.005 0.39704,0.3994 2.13189,5.15948 2.04322,5.60617 -0.0677,0.34125 -0.13426,0.36022 -0.3057,0.0872 z M 29.418996,89.825644 c -0.569373,-0.1956 -0.361908,-0.83378 0.396875,-1.22083 1.716476,-0.87555 11.817223,-4.04039 14.618229,-4.58028 0.817769,-0.15762 0.886378,-0.13024 0.586801,0.23423 -0.186581,0.22699 -0.662831,0.47384 -1.058333,0.54856 -1.808763,0.34169 -7.807701,2.4822 -10.958531,3.91017 -2.076731,0.94119 -3.126494,1.26567 -3.585041,1.10815 z m 111.455734,-5.32692 c -1.78684,-0.46591 -3.58329,-1.878635 -3.55511,-2.795749 0.0165,-0.536316 0.0207,-0.535938 0.24577,0.02169 0.31403,0.778225 1.76754,1.829835 3.05427,2.209749 0.6456,0.19062 2.21491,0.27837 3.96875,0.22193 3.37576,-0.10866 4.68985,-0.587033 5.33627,-1.942591 0.37218,-0.780478 0.36143,-0.938054 -0.14161,-2.075273 -0.35877,-0.811056 -0.86517,-1.419931 -1.48522,-1.785768 -1.07461,-0.634037 -1.21379,-0.885293 -0.34552,-0.623768 0.89905,0.270793 2.26806,1.690211 2.59986,2.695599 0.53179,1.611312 -0.1375,2.937975 -1.86688,3.700581 -1.04491,0.46077 -6.47936,0.72072 -7.81058,0.37361 z M 83.514097,82.341385 c -0.406934,-1.556123 1.09687,-3.764222 3.317073,-4.870595 3.319828,-1.654339 4.647185,0.01757 2.109291,2.656824 -0.635413,0.660789 -4.363673,2.749341 -4.907828,2.749341 -0.208164,0 -0.441505,-0.241007 -0.518536,-0.53557 z m -16.590413,0.0064 c 0,-0.145521 0.178594,-0.264583 0.396875,-0.264583 0.218282,0 0.396875,0.119062 0.396875,0.264583 0,0.145521 -0.178593,0.264583 -0.396875,0.264583 -0.218281,0 -0.396875,-0.119062 -0.396875,-0.264583 z m -4.233333,-1.579049 c 0,-0.140875 -0.327422,-0.433763 -0.727604,-0.650867 -0.960731,-0.521203 -0.529503,-0.532297 0.47616,-0.01225 0.757124,0.391527 1.053367,0.919249 0.516027,0.919249 -0.145521,0 -0.264583,-0.11526 -0.264583,-0.256132 z m 75.538539,-2.389701 c 0.0899,-0.145521 0.21603,-0.264583 0.2802,-0.264583 0.0642,0 0.11668,0.119062 0.11668,0.264583 0,0.145521 -0.12609,0.264583 -0.2802,0.264583 -0.15411,0 -0.20661,-0.119062 -0.11668,-0.264583 z m 1.04734,-0.479089 c 0.22064,-1.004578 -0.29845,-1.43116 -3.33897,-2.743912 -4.41756,-1.907294 -8.34345,-1.718241 -10.83487,0.521764 -1.07602,0.96743 -1.37059,1.114372 -1.69472,0.845373 -0.68658,-0.569812 -0.4292,-1.311815 0.96717,-2.788269 2.57839,-2.726264 5.5192,-3.51422 10.77693,-2.887541 2.65069,0.315941 6.16174,2.281843 7.02827,3.935262 0.45129,0.86112 0.47126,1.087532 0.1695,1.922033 -0.28407,0.785585 -0.28109,0.989018 0.0176,1.200137 0.25057,0.177107 0.11891,0.21353 -0.43409,0.120087 -0.46823,-0.07912 -1.00436,0.02024 -1.30734,0.242308 -0.28247,0.207036 -0.73842,0.37643 -1.0132,0.37643 -0.41001,0 -0.47033,-0.133384 -0.33629,-0.743672 z m 4.84438,-0.241829 c 0.47555,-0.05889 1.18993,-0.05767 1.5875,0.0027 0.39758,0.06037 0.008,0.10855 -0.86463,0.107066 -0.87313,-0.0016 -1.19842,-0.05088 -0.72287,-0.109765 z M 49.162218,76.668962 c -0.23318,-0.233183 -8.317532,-0.90963 -12.797909,-1.070851 -5.495246,-0.197736 -6.196048,-0.340868 -6.213658,-1.269071 -0.0059,-0.313169 4.72595,-0.167786 7.933449,0.243745 3.935831,0.504978 11.110368,1.659503 12.044358,1.938176 l 0.787934,0.235092 -0.815797,0.02276 c -0.448691,0.01251 -0.870959,-0.03242 -0.938377,-0.09984 z M 61.33697,69.954755 c -0.347046,-0.267729 -2.273922,-1.531911 -4.281943,-2.809293 -2.00802,-1.277382 -3.591861,-2.381599 -3.519646,-2.453815 0.152313,-0.152312 1.038175,0.375071 5.089467,3.029935 1.620277,1.061786 3.093371,2.108141 3.273542,2.325237 0.445219,0.536456 0.201493,0.496488 -0.56142,-0.09206 z M 79.7062,66.483009 c 0.09071,-0.594373 1.621748,-1.817698 4.251019,-3.396634 2.175518,-1.306443 2.877447,-1.553813 5.763236,-2.031029 1.213496,-0.20067 2.533777,-0.446939 2.933959,-0.547261 0.882391,-0.221205 0.985907,0.294243 0.233352,1.161947 -0.455305,0.524973 -0.945451,0.679029 -4.268248,1.34154 l -0.926041,0.18464 1.322916,0.197302 c 0.727605,0.108519 1.680105,0.302908 2.116667,0.431978 0.436563,0.129069 1.856859,0.308387 3.156215,0.398481 2.675527,0.185515 4.416988,0.478649 5.575035,0.938418 1.16127,0.461053 0.35271,0.62729 -1.412409,0.290386 -0.823905,-0.157258 -2.450507,-0.354161 -3.614674,-0.437565 -1.164167,-0.0834 -3.431382,-0.343369 -5.038254,-0.577697 l -2.921588,-0.42605 -2.15179,0.716613 c -1.183487,0.394136 -2.300076,0.895281 -2.48131,1.113655 -0.318442,0.383701 -1.915808,1.160222 -2.386669,1.160222 -0.126836,0 -0.194971,-0.233524 -0.151416,-0.518946 z m 131.28559,-1.858296 c -0.15883,-0.256995 1.787,-1.263621 4.62773,-2.394032 0.80037,-0.318489 2.13436,-0.852538 2.96443,-1.186775 1.24587,-0.501661 1.5606,-0.545799 1.80364,-0.252945 0.22629,0.272654 0.15255,0.447493 -0.31859,0.755452 -0.95106,0.621654 -3.56457,1.740723 -6.02047,2.577883 -2.43484,0.829985 -2.81463,0.892159 -3.05674,0.500417 z M 47.476809,60.744188 c -4.666015,-2.85641 -5.688542,-3.54222 -5.688542,-3.81531 0,-0.925055 3.373475,0.896924 7.513019,4.057703 0.687932,0.525275 1.39229,1.007174 1.565238,1.070885 0.208949,0.07698 0.225681,0.20216 0.04987,0.373108 -0.173053,0.168269 -1.36294,-0.415118 -3.439583,-1.686386 z M 63.80458,58.469142 c -1.019389,-1.200547 -4.973436,-5.242129 -8.78677,-8.981292 -3.813334,-3.739165 -6.884025,-6.946411 -6.823755,-7.127215 0.06027,-0.180803 0.226213,-0.367612 0.368771,-0.415131 0.319788,-0.106595 7.754829,7.171395 10.460744,10.239784 1.090808,1.236927 2.977523,3.499115 4.192701,5.027083 2.800469,3.521316 2.739213,3.439584 2.577812,3.439584 -0.07484,0 -0.970111,-0.982266 -1.989503,-2.182813 z m 139.74001,-2.1767 c -0.41816,-0.305766 -0.18095,-0.48804 2.16463,-1.663341 2.75424,-1.380058 9.72703,-4.219553 10.97431,-4.469011 0.84333,-0.168663 1.29039,0.323586 0.75323,0.829363 -0.19911,0.187489 -1.54702,0.779368 -2.99534,1.315289 -1.44832,0.535922 -4.06712,1.637935 -5.81955,2.44892 -3.93629,1.821627 -4.46947,1.983216 -5.07728,1.53878 z m -39.25424,-2.267554 c 0,-0.138655 -0.26789,-0.264287 -0.59531,-0.279183 -0.44906,-0.02043 -0.39109,-0.07578 0.23596,-0.225311 0.4572,-0.109027 1.24515,-0.454028 1.75102,-0.766667 0.50586,-0.312642 1.2702,-0.568439 1.69853,-0.568439 0.71544,0 1.23473,-0.349345 2.14838,-1.445313 0.20417,-0.244914 0.60593,-0.36485 0.9893,-0.29533 0.53939,0.09781 0.68556,-0.02135 0.88912,-0.724797 0.19694,-0.680578 0.24818,-0.725292 0.26747,-0.2334 0.0131,0.334648 -0.15429,0.952971 -0.37204,1.374047 -0.24971,0.482897 -0.29856,0.825754 -0.13229,0.928519 0.59216,0.365974 0.18788,0.954902 -1.10539,1.610254 -1.07493,0.544705 -1.8422,0.713486 -3.57187,0.785722 -1.28385,0.05362 -2.20288,-0.01318 -2.20288,-0.160102 z m 33.07292,-2.465284 c 0,-0.234984 0.65332,-0.861023 1.45182,-1.391198 1.20305,-0.798779 1.5204,-0.907034 1.85208,-0.631764 0.58755,0.487619 0.51068,0.653174 -0.66426,1.430716 -1.37026,0.906793 -2.63964,1.191601 -2.63964,0.592246 z m -89.94992,-2.318483 c -0.005,-0.236842 0.17018,-0.578842 0.38846,-0.76 0.50868,-0.422161 0.51403,0.0085 0.008,0.677035 -0.32635,0.431472 -0.3898,0.444735 -0.39687,0.08297 z M 190.598,43.633797 c -0.10922,-0.284629 0.089,-0.857242 0.52477,-1.515685 1.19428,-1.804684 6.22252,-5.137891 6.83169,-4.528716 0.40128,0.401273 0.10012,0.698525 -2.27852,2.249004 -1.2093,0.788256 -2.80704,2.067615 -3.55056,2.84302 -1.11957,1.167591 -1.382,1.331228 -1.52738,0.952377 z"
       id="path248" /></g><metadata
     id="metadata34182"><rdf:RDF><cc:Work
         rdf:about=""><dc:date>15 AUG 2024</dc:date><dc:creator><cc:Agent><dc:title>Zachary B Rainey</dc:title></cc:Agent></dc:creator><dc:rights><cc:Agent><dc:title>PD</dc:title></cc:Agent></dc:rights><dc:source>Some elements derived from AI sources</dc:source><dc:title>capybara</dc:title></cc:Work></rdf:RDF></metadata></svg>
