<?xml version="1.0" encoding="UTF-8" standalone="no"?>
<!-- Created with Inkscape (http://www.inkscape.org/) -->

<svg
   xmlns:dc="http://purl.org/dc/elements/1.1/"
   xmlns:cc="http://creativecommons.org/ns#"
   xmlns:rdf="http://www.w3.org/1999/02/22-rdf-syntax-ns#"
   xmlns:svg="http://www.w3.org/2000/svg"
   xmlns="http://www.w3.org/2000/svg"
   xmlns:sodipodi="http://sodipodi.sourceforge.net/DTD/sodipodi-0.dtd"
   xmlns:inkscape="http://www.inkscape.org/namespaces/inkscape"
   width="210mm"
   height="297mm"
   viewBox="0 0 210 297"
   version="1.1"
   id="svg2605"
   inkscape:version="0.92.2 (5c3e80d, 2017-08-06)"
   sodipodi:docname="shark.svg">
  <defs
     id="defs2599" />
  <sodipodi:namedview
     id="base"
     pagecolor="#ffffff"
     bordercolor="#666666"
     borderopacity="1.0"
     inkscape:pageopacity="0.0"
     inkscape:pageshadow="2"
     inkscape:zoom="0.35"
     inkscape:cx="-224.28571"
     inkscape:cy="560"
     inkscape:document-units="mm"
     inkscape:current-layer="layer1"
     showgrid="false"
     inkscape:window-width="1920"
     inkscape:window-height="1017"
     inkscape:window-x="-8"
     inkscape:window-y="-8"
     inkscape:window-maximized="1" />
  <metadata
     id="metadata2602">
    <rdf:RDF>
      <cc:Work
         rdf:about="">
        <dc:format>image/svg+xml</dc:format>
        <dc:type
           rdf:resource="http://purl.org/dc/dcmitype/StillImage" />
        <dc:title></dc:title>
      </cc:Work>
    </rdf:RDF>
  </metadata>
  <g
     inkscape:label="Ebene 1"
     inkscape:groupmode="layer"
     id="layer1">
    <g
       style="display:inline;opacity:1"
       id="g2481"
       transform="translate(-5.6347338,7.8559219)">
      <path
         style="display:inline;opacity:1;fill:#000000;fill-opacity:1;stroke:#000000;stroke-width:1.21121383;stroke-linecap:square;stroke-linejoin:miter;stroke-miterlimit:4;stroke-dasharray:none;paint-order:normal"
         d="m 77.542602,39.399605 c -5.306901,0.0011 -10.456259,0.469211 -15.289406,1.186023 -19.469074,2.887496 -39.023215,16.561777 -51.071338,38.44528 -2.0736559,14.734284 50.226329,0.280033 75.189821,12.665163 30.305361,15.035389 -2.104076,36.130379 -0.800582,50.566899 2.890269,32.01043 -20.215464,63.71385 -16.617897,70.29785 -3.589455,0.8452 -7.177102,2.11314 -10.761343,3.80401 -14.091913,6.64792 -32.799944,13.28809 -32.799941,26.58393 17.886042,-0.80382 37.636099,0.54955 52.213475,-12.28871 14.623163,13.72869 36.796319,9.90295 51.192639,13.25011 0,-13.29587 -14.18467,-21.04715 -28.27658,-27.69507 -3.780436,-1.78346 -7.564895,-3.07697 -11.351028,-3.88773 0.648505,-0.87439 1.348982,-2.07206 2.13427,-3.68391 2.800985,-5.74913 15.640808,-12.84593 27.068438,-21.44256 6.09644,-4.58616 10.6686,-10.32976 15.34487,-15.06215 19.02385,-19.25218 32.01908,-54.31649 25.87285,-82.274054 -0.43264,-1.96795 -1.06448,-3.950504 -2.24624,-5.703946 13.7256,-19.704565 47.30295,-4.158634 54.55076,-12.118669 -3.27765,-0.357044 -10.20633,-8.180116 -17.62146,-12.23618 -8.53751,-4.670005 -18.24133,-8.817251 -27.9391,-8.88609 -8.78249,0.0034 -32.73272,-0.359869 -41.03198,6.943005 C 110.80503,43.59247 93.463306,39.396155 77.542602,39.399605 Z"
         id="path815-7"
         inkscape:connector-curvature="0"
         sodipodi:nodetypes="sscssccccccccsssccsccs" />
      <path
         sodipodi:nodetypes="ccc"
         inkscape:connector-curvature="0"
         id="rect949-9-6"
         d="m 64.589643,182.70156 c 0.638044,-34.86801 23.651416,-9.27914 41.584297,-66.88065 -53.750986,-6.07277 -73.844834,48.11291 -41.584297,66.88065 z"
         style="display:inline;opacity:1;fill:#000000;fill-opacity:1;stroke:#000000;stroke-width:1.66200852;stroke-linecap:square;stroke-linejoin:bevel;stroke-miterlimit:4;stroke-dasharray:none;paint-order:normal" />
      <path
         sodipodi:nodetypes="ccc"
         inkscape:connector-curvature="0"
         id="rect949-9"
         d="m 64.26002,181.87899 c 0.635439,-34.08978 23.5549,-9.07204 41.41461,-65.38792 -53.531651,-5.93723 -73.543503,47.03906 -41.41461,65.38792 z"
         style="display:inline;opacity:1;fill:#0088aa;fill-opacity:1;stroke:none;stroke-width:1.63999999;stroke-linecap:square;stroke-linejoin:bevel;stroke-miterlimit:4;stroke-dasharray:none;paint-order:normal" />
      <path
         style="display:inline;opacity:1;fill:#0088aa;fill-opacity:1;stroke:none;stroke-width:1.20000005;stroke-linecap:square;stroke-linejoin:miter;stroke-miterlimit:4;stroke-dasharray:none;paint-order:normal"
         d="m 77.906651,40.21122 c -5.241287,0.0011 -10.326978,0.466328 -15.100368,1.178738 -19.228361,2.869758 -39.568409,16.413277 -51.46757,38.162351 -3.1638839,5.0924 50.051615,-0.0419 74.706461,12.26713 29.930666,14.943031 -1.496669,36.275431 -0.209291,50.623261 2.854534,31.8138 -19.965522,63.32247 -16.412435,69.86602 -3.545075,0.84001 -7.088365,2.10016 -10.628291,3.78065 -13.917681,6.60708 -32.394408,13.20646 -32.394405,26.42062 17.6649,-0.79888 37.170769,0.54618 51.567912,-12.21322 14.442363,13.64435 36.341366,9.84212 50.559696,13.16871 0,-13.21418 -14.00929,-20.91785 -27.92697,-27.52494 -3.733695,-1.7725 -7.471363,-3.05806 -11.210685,-3.86384 0.640488,-0.86903 1.332304,-2.05933 2.107883,-3.66128 2.766354,-5.71382 15.447422,-12.76702 26.733762,-21.31084 6.02107,-4.55799 10.5367,-10.26631 15.15515,-14.96963 18.78864,-19.13391 31.6232,-53.98283 25.55296,-81.768651 -0.42729,-1.95586 -1.05132,-3.92624 -2.21847,-5.66891 13.5559,-19.58352 48.2978,-4.752713 55.456,-12.663844 -1.78108,-0.195241 -4.54464,-2.421188 -8.17659,-5.306617 -2.96916,-2.358864 -6.70647,-4.753239 -9.43167,-6.398402 -4.63044,-2.795332 -9.37067,-4.739646 -13.98743,-6.277658 -5.69445,-1.897031 -7.24214,-2.426671 -12.13582,-2.989961 -2.78568,-0.320648 -9.9866,0.0026 -18.86642,0.376816 -9.4803,1.186115 -16.09199,0.886702 -24.50368,7.12328 C 110.75783,44.378328 93.630513,40.207791 77.906651,40.21122 Z"
         id="path815"
         inkscape:connector-curvature="0"
         sodipodi:nodetypes="sscssccccccccsssccssssccs" />
      <path
         sodipodi:type="star"
         id="path4561"
         sodipodi:sides="3"
         sodipodi:cx="-58.911983"
         sodipodi:cy="129.65948"
         sodipodi:r1="37.741013"
         sodipodi:r2="18.870504"
         sodipodi:arg1="1.2490458"
         sodipodi:arg2="2.2962434"
         inkscape:flatsided="true"
         inkscape:rounded="2.1857516e-016"
         inkscape:randomized="0"
         d="m -46.977228,165.46375 -48.909539,-43.3706 62.014812,-20.6716 z"
         inkscape:transform-center-x="-0.85677745"
         inkscape:transform-center-y="2.6841831"
         style="display:inline;opacity:1;fill:#ffffff;stroke:#000000;stroke-width:2.38360882;stroke-miterlimit:4;stroke-dasharray:none"
         transform="matrix(0.3660127,-0.01198309,0.01273874,0.38909315,49.486854,45.487725)" />
      <path
         sodipodi:type="star"
         id="path4561-1"
         sodipodi:sides="3"
         sodipodi:cx="-58.911983"
         sodipodi:cy="129.65948"
         sodipodi:r1="37.741013"
         sodipodi:r2="18.870504"
         sodipodi:arg1="1.2490458"
         sodipodi:arg2="2.2962434"
         inkscape:flatsided="true"
         inkscape:rounded="2.1857516e-016"
         inkscape:randomized="0"
         d="m -46.977228,165.46375 -48.909539,-43.3706 62.014812,-20.6716 z"
         inkscape:transform-center-x="-1.3180723"
         inkscape:transform-center-y="3.532072"
         style="display:inline;opacity:1;fill:#ffffff;stroke:#000000;stroke-width:2.38360906;stroke-miterlimit:4;stroke-dasharray:none"
         transform="matrix(0.36570571,0.0191893,-0.02039935,0.38876679,65.431982,41.800571)" />
      <path
         transform="matrix(0.3556635,0.08724881,-0.09275063,0.37809136,89.336697,46.734801)"
         style="display:inline;opacity:1;fill:#ffffff;stroke:#000000;stroke-width:2.64845443;stroke-miterlimit:4;stroke-dasharray:none"
         inkscape:transform-center-y="5.3061891"
         inkscape:transform-center-x="-2.2987418"
         d="m -46.977228,165.46375 -48.909539,-43.3706 62.014812,-20.6716 z"
         inkscape:randomized="0"
         inkscape:rounded="2.1857516e-016"
         inkscape:flatsided="true"
         sodipodi:arg2="2.2962434"
         sodipodi:arg1="1.2490458"
         sodipodi:r2="18.870504"
         sodipodi:r1="37.741013"
         sodipodi:cy="129.65948"
         sodipodi:cx="-58.911983"
         sodipodi:sides="3"
         id="path4608"
         sodipodi:type="star" />
      <path
         sodipodi:type="star"
         id="path4610"
         sodipodi:sides="3"
         sodipodi:cx="-58.911983"
         sodipodi:cy="129.65948"
         sodipodi:r1="37.741013"
         sodipodi:r2="18.870504"
         sodipodi:arg1="1.2490458"
         sodipodi:arg2="2.2962434"
         inkscape:flatsided="true"
         inkscape:rounded="2.1857516e-016"
         inkscape:randomized="0"
         d="m -46.977228,165.46375 -48.909539,-43.3706 62.014812,-20.6716 z"
         inkscape:transform-center-x="-4.1177548"
         inkscape:transform-center-y="4.7641531"
         style="display:inline;opacity:1;fill:#ffffff;stroke:#000000;stroke-width:2.64845443;stroke-miterlimit:4;stroke-dasharray:none"
         transform="matrix(0.29105201,0.22225573,-0.23627099,0.30940552,119.25479,64.763536)" />
      <path
         sodipodi:type="star"
         id="path4610-9"
         sodipodi:sides="3"
         sodipodi:cx="-58.911983"
         sodipodi:cy="129.65948"
         sodipodi:r1="37.741013"
         sodipodi:r2="18.870504"
         sodipodi:arg1="1.2490458"
         sodipodi:arg2="2.2962434"
         inkscape:flatsided="true"
         inkscape:rounded="2.1857516e-016"
         inkscape:randomized="0"
         d="m -46.977228,165.46375 -48.909539,-43.3706 62.014812,-20.6716 z"
         inkscape:transform-center-x="-4.5368425"
         inkscape:transform-center-y="3.7531852"
         style="display:inline;opacity:1;fill:#ffffff;stroke:#000000;stroke-width:2.38360906;stroke-miterlimit:4;stroke-dasharray:none"
         transform="matrix(0.24765212,0.26977274,-0.28678436,0.26326885,137.93182,76.217335)" />
      <path
         transform="matrix(-0.15282558,0.03314264,-0.0355826,-0.16213408,66.292211,140.3305)"
         style="display:inline;opacity:1;fill:#ffffff;stroke:#000000;stroke-width:4.46890116;stroke-miterlimit:4;stroke-dasharray:none"
         inkscape:transform-center-y="-0.35054795"
         inkscape:transform-center-x="0.073649632"
         d="m -46.977228,165.46375 -48.909539,-43.3706 62.014812,-20.6716 z"
         inkscape:randomized="0"
         inkscape:rounded="2.1857516e-016"
         inkscape:flatsided="true"
         sodipodi:arg2="2.2962434"
         sodipodi:arg1="1.2490458"
         sodipodi:r2="18.870504"
         sodipodi:r1="37.741013"
         sodipodi:cy="129.65948"
         sodipodi:cx="-58.911983"
         sodipodi:sides="3"
         id="path4627"
         sodipodi:type="star" />
      <path
         transform="matrix(-0.16904992,0.05512641,-0.05358431,-0.19114279,75.310018,143.81243)"
         style="display:inline;opacity:1;fill:#ffffff;stroke:#000000;stroke-width:4.07893753;stroke-miterlimit:4;stroke-dasharray:none"
         inkscape:transform-center-y="-1.745344"
         inkscape:transform-center-x="-0.56083305"
         d="m -46.977228,165.46375 -48.909539,-43.3706 62.014812,-20.6716 z"
         inkscape:randomized="0"
         inkscape:rounded="2.1857516e-016"
         inkscape:flatsided="true"
         sodipodi:arg2="2.2962434"
         sodipodi:arg1="1.2490458"
         sodipodi:r2="18.870504"
         sodipodi:r1="37.741013"
         sodipodi:cy="129.65948"
         sodipodi:cx="-58.911983"
         sodipodi:sides="3"
         id="path4627-9"
         sodipodi:type="star" />
      <path
         transform="matrix(-0.19144647,0.07442639,-0.08795907,-0.18661045,87.578459,141.04225)"
         style="display:inline;opacity:1;fill:#ffffff;stroke:#000000;stroke-width:3.89586711;stroke-miterlimit:4;stroke-dasharray:none"
         inkscape:transform-center-y="-1.2976414"
         inkscape:transform-center-x="0.050937729"
         d="m -46.977228,165.46375 -48.909539,-43.3706 62.014812,-20.6716 z"
         inkscape:randomized="0"
         inkscape:rounded="2.1857516e-016"
         inkscape:flatsided="true"
         sodipodi:arg2="2.2962434"
         sodipodi:arg1="1.2490458"
         sodipodi:r2="18.870504"
         sodipodi:r1="37.741013"
         sodipodi:cy="129.65948"
         sodipodi:cx="-58.911983"
         sodipodi:sides="3"
         id="path4627-9-9"
         sodipodi:type="star" />
      <path
         sodipodi:nodetypes="cccc"
         inkscape:connector-curvature="0"
         id="path4627-9-9-3"
         d="m 85.048019,105.65251 12.58961,-8.942461 0.76563,15.473991 z"
         inkscape:transform-center-y="-2.2420157"
         inkscape:transform-center-x="4.3707524"
         style="display:inline;opacity:1;fill:#ffffff;stroke:#000000;stroke-width:0.87599999;stroke-miterlimit:4;stroke-dasharray:none" />
      <path
         sodipodi:nodetypes="cccsssscsscc"
         inkscape:connector-curvature="0"
         id="rect4770"
         d="m 30.327505,82.637369 84.493285,8.10209 -16.493554,62.501901 c -8.971769,-2.48988 -11.338578,-9.67288 -16.037969,-18.15845 -2.478217,-4.47485 -6.481325,-10.41005 -12.839803,-12.20715 -7.052245,-1.99318 10.77713,-7.34018 19.423412,-11.90449 6.45246,-3.4062 4.736659,-7.15584 -0.115191,-9.81624 -14.601597,-8.006451 -22.093315,-9.170411 -37.264957,-8.505991 -8.773949,-0.36781 -15.567474,6.05621 -22.20484,8.262801 -3.293549,1.09495 -7.69752,-0.68849 -10.105223,-3.193291 -2.021308,-2.10283 -4.633065,-2.24933 -6.216799,-9.00461 z"
         style="display:inline;opacity:1;fill:#c83737;fill-opacity:1;stroke:#000000;stroke-width:0.76630807;stroke-miterlimit:4;stroke-dasharray:none" />
      <path
         sodipodi:nodetypes="ccscscssscc"
         inkscape:connector-curvature="0"
         id="path923"
         d="m 135.05521,116.8254 c 6.39433,36.97909 -71.186245,108.6381 -65.79209,92.815 1.515328,-5.6644 7.973634,-23.77697 9.943625,-28.90284 5.328742,-13.86526 4.618613,-17.75135 5.446219,-29.81817 -0.207844,-4.13503 -0.815001,-5.63114 -1.353351,-7.81487 -3.83335,-15.54942 -7.226348,-16.52384 -15.208679,-20.72479 -1.123871,-0.61056 28.207796,-11.13034 29.02061,-15.07 C 99.022325,98.048279 65.813041,82.246439 41.231446,92.188509 28.394017,97.380639 25.29157,101.53981 22.760791,100.03535 11.536525,93.362919 8.9995416,84.814329 10.989406,79.368119 59.362661,62.328605 135.06602,76.78165 135.05521,116.8254 Z"
         style="display:inline;opacity:1;fill:#ffffff;fill-opacity:1;stroke:#000000;stroke-width:1.16100001;stroke-miterlimit:4;stroke-dasharray:none;stroke-opacity:1;paint-order:normal" />
      <path
         d="m 65.421,237.23985 a 0.0992456,0.47831219 0 0 1 -0.0974,0.47823 0.0992456,0.47831219 0 0 1 -0.101025,-0.46041 0.0992456,0.47831219 0 0 1 0.09363,-0.49538 0.0992456,0.47831219 0 0 1 0.104514,0.44196"
         sodipodi:open="true"
         sodipodi:end="6.2086772"
         sodipodi:start="0"
         sodipodi:ry="0.47831219"
         sodipodi:rx="0.0992456"
         sodipodi:cy="237.23985"
         sodipodi:cx="65.321754"
         sodipodi:type="arc"
         id="path846"
         style="display:inline;opacity:1;fill:none;fill-opacity:1;stroke:none;stroke-width:0.42278624;stroke-linecap:square;stroke-linejoin:miter;stroke-miterlimit:4;stroke-dasharray:none;paint-order:normal" />
      <path
         style="display:inline;opacity:1;fill:#000000;fill-opacity:1;stroke:none;stroke-width:1.10458982;stroke-linecap:square;stroke-linejoin:bevel;stroke-miterlimit:4;stroke-dasharray:none;paint-order:normal"
         d="m 171.25516,186.60553 c -1.3225,-38.40048 -17.94528,-3.80361 -34.04242,-60.22469 47.90724,-9.00803 65.07676,40.03866 34.04242,60.22469 z"
         id="path8586-3"
         inkscape:connector-curvature="0"
         sodipodi:nodetypes="ccc" />
      <path
         style="display:inline;opacity:1;fill:#0088aa;fill-opacity:1;stroke:none;stroke-width:1.04030943;stroke-linecap:square;stroke-linejoin:bevel;stroke-miterlimit:4;stroke-dasharray:none;paint-order:normal"
         d="m 172.29659,183.90983 c -0.8217,-33.56129 -17.14641,-3.98092 -36.52892,-58.14278 1.02011,-0.1615 0.82015,-0.28638 1.81662,-0.4048 43.18799,-5.13239 63.35674,40.57729 34.7123,58.54758 z"
         id="path8586"
         inkscape:connector-curvature="0"
         sodipodi:nodetypes="ccsc" />
      <path
         sodipodi:nodetypes="cssccsc"
         inkscape:connector-curvature="0"
         id="path1829-5"
         d="m 85.38088,45.358649 c 0.750304,-1.112366 4.037828,-1.219977 8.042432,-0.741757 4.004602,0.478226 8.412728,1.752848 11.489448,3.322228 3.07676,1.569386 5.56989,3.293302 3.21899,4.190345 -3.83929,-0.806201 -1.67109,-2.02015 -7.00371,-4.349081 -1.204026,-0.616459 -4.806385,-1.651409 -6.635895,-1.842917 -2.993372,-0.313342 -7.178674,0.224028 -9.111264,-0.578819 z"
         style="display:inline;opacity:1;fill:#000000;fill-opacity:1;stroke:none;stroke-width:0.2591134;stroke-linecap:square;stroke-linejoin:miter;stroke-miterlimit:4;stroke-dasharray:none;paint-order:normal" />
      <path
         style="display:inline;opacity:1;fill:#000000;fill-opacity:1;stroke:#000000;stroke-width:0.62140858;stroke-linecap:square;stroke-linejoin:miter;stroke-miterlimit:4;stroke-dasharray:none;paint-order:normal"
         id="path1831-3-5"
         sodipodi:type="arc"
         sodipodi:cx="93.263168"
         sodipodi:cy="57.168945"
         sodipodi:rx="12.339396"
         sodipodi:ry="9.2683506"
         sodipodi:start="0"
         sodipodi:end="6.2782943"
         sodipodi:open="true"
         d="M 105.60256,57.168945 A 12.339396,9.2683506 0 0 1 93.278256,66.437289 12.339396,9.2683506 0 0 1 80.923809,57.191611 12.339396,9.2683506 0 0 1 93.217904,47.900657 12.339396,9.2683506 0 0 1 105.60242,57.123614" />
      <path
         style="display:inline;opacity:1;fill:#ffffff;fill-opacity:1;stroke:#000000;stroke-width:0.662;stroke-linecap:square;stroke-linejoin:miter;stroke-miterlimit:4;stroke-dasharray:none;paint-order:normal"
         id="path1831-3"
         sodipodi:type="arc"
         sodipodi:cx="93.018402"
         sodipodi:cy="58.869457"
         sodipodi:rx="12.78636"
         sodipodi:ry="10.151048"
         sodipodi:start="0"
         sodipodi:end="6.2482594"
         sodipodi:open="true"
         d="M 105.80476,58.869457 A 12.78636,10.151048 0 0 1 93.130044,69.020118 12.78636,10.151048 0 0 1 80.233992,59.046716 12.78636,10.151048 0 0 1 92.683509,48.721892 12.78636,10.151048 0 0 1 105.79696,58.514995" />
      <path
         style="display:inline;opacity:1;fill:#000000;fill-opacity:1;stroke:#000000;stroke-width:0.54085416;stroke-linecap:square;stroke-linejoin:miter;stroke-miterlimit:4;stroke-dasharray:none;paint-order:normal"
         id="path1833-1"
         sodipodi:type="arc"
         sodipodi:cx="86.427383"
         sodipodi:cy="59.362278"
         sodipodi:rx="4.1866846"
         sodipodi:ry="2.9644651"
         sodipodi:start="0"
         sodipodi:end="6.2740593"
         d="m 90.614068,59.362278 a 4.1866846,2.9644651 0 0 1 -4.177133,2.964457 4.1866846,2.9644651 0 0 1 -4.196193,-2.95093 4.1866846,2.9644651 0 0 1 4.157986,-2.977923 4.1866846,2.9644651 0 0 1 4.215166,2.937343 l -4.186511,0.02705 z" />
      <path
         sodipodi:open="true"
         style="display:inline;opacity:1;fill:#ffffff;fill-opacity:1;stroke:none;stroke-width:0.21629786;stroke-linecap:square;stroke-linejoin:miter;stroke-miterlimit:4;stroke-dasharray:none;paint-order:normal"
         id="path1835-0"
         sodipodi:type="arc"
         sodipodi:cx="84.499374"
         sodipodi:cy="58.971836"
         sodipodi:rx="1.4184084"
         sodipodi:ry="1.3570485"
         sodipodi:start="0"
         sodipodi:end="6.278786"
         d="m 85.917783,58.971836 a 1.4184084,1.3570485 0 0 1 -1.416849,1.357048 1.4184084,1.3570485 0 0 1 -1.419965,-1.354063 1.4184084,1.3570485 0 0 1 1.413725,-1.360026 1.4184084,1.3570485 0 0 1 1.423075,1.351071" />
    </g>
  </g>
</svg>
